<?xml version="1.0" encoding="UTF-8" standalone="no"?>
<!DOCTYPE svg PUBLIC "-//W3C//DTD SVG 1.1//EN" "http://www.w3.org/Graphics/SVG/1.1/DTD/svg11.dtd">
<svg xmlns="http://www.w3.org/2000/svg" version="1.1" viewBox="0 0 512 512">
<path fill="rgb(204,214,221)" fill-opacity="1.000" d="M 342.04 9.75 L 341.02 10.11 A 1.47 1.08 -78.8 0 0 340.32 10.75 Q 330.53 28.40 327.19 35.19 Q 326.51 36.56 325.50 36.54 Q 310.31 32.42 296.00 30.75 Q 260.27 26.59 223.50 30.00 Q 203.32 31.87 186.00 36.79 Q 177.85 23.14 171.00 8.79 Q 188.87 5.27 207.00 3.54 Q 258.53 -1.38 309.99 4.06 Q 326.49 5.80 340.75 8.75 Q 341.50 8.91 342.04 9.75 Z"/>
<path fill="rgb(153,170,181)" fill-opacity="1.000" d="M 171.00 8.79 Q 177.85 23.14 186.00 36.79 Q 186.20 37.76 187.00 39.25 Q 221.09 102.66 255.42 166.49 Q 255.66 166.95 255.91 166.49 Q 290.79 102.26 325.50 38.00 Q 326.07 36.95 325.50 36.54 Q 326.51 36.56 327.19 35.19 Q 330.53 28.40 340.32 10.75 A 1.47 1.08 -78.8 0 1 341.02 10.11 L 342.04 9.75 Q 351.04 20.00 352.25 33.71 Q 347.61 44.76 342.14 55.41 Q 321.17 96.22 299.26 136.54 Q 245.12 236.20 190.07 335.37 Q 190.00 335.50 190.00 335.64 Q 190.00 335.80 190.00 335.96 L 166.00 331.54 Q 166.77 331.54 166.95 330.93 Q 167.15 330.22 167.21 330.11 Q 204.86 260.89 242.34 191.51 A 1.26 1.24 -46.3 0 0 242.32 190.29 Q 209.63 134.37 178.87 77.66 Q 172.44 65.80 162.69 45.81 Q 159.40 39.08 158.21 33.00 Q 159.79 18.31 171.00 8.79 Z"/>
<path fill="rgb(102,117,127)" fill-opacity="1.000" d="M 325.50 36.54 Q 326.07 36.95 325.50 38.00 Q 290.79 102.26 255.91 166.49 Q 255.66 166.95 255.42 166.49 Q 221.09 102.66 187.00 39.25 Q 186.20 37.76 186.00 36.79 Q 203.32 31.87 223.50 30.00 Q 260.27 26.59 296.00 30.75 Q 310.31 32.42 325.50 36.54 Z"/>
<path fill="rgb(225,232,237)" fill-opacity="1.000" d="M 158.21 33.00 Q 159.40 39.08 162.69 45.81 Q 172.44 65.80 178.87 77.66 Q 209.63 134.37 242.32 190.29 A 1.26 1.24 -46.3 0 1 242.34 191.51 Q 204.86 260.89 167.21 330.11 Q 167.15 330.22 166.95 330.93 Q 166.77 331.54 166.00 331.54 Q 132.26 324.87 100.00 312.96 Q 99.75 311.08 99.75 307.75 Q 99.76 239.89 99.75 172.03 Q 99.75 171.71 99.60 171.51 Q 99.18 170.93 98.96 172.00 Q 98.26 172.21 97.19 173.44 Q 88.67 183.21 86.00 194.71 Q 85.20 202.08 85.19 209.50 Q 85.13 293.55 85.43 377.59 Q 85.43 377.67 85.22 380.26 Q 85.09 381.77 85.54 383.25 L 85.50 383.71 Q 85.27 383.69 85.06 383.74 Q 84.38 383.93 84.27 383.93 Q 63.06 383.78 42.00 381.25 Q 32.04 380.06 22.53 376.90 Q 19.61 375.93 17.03 374.24 Q 14.37 372.49 14.23 369.25 Q 12.85 334.88 11.88 300.50 Q 9.95 231.98 13.20 163.51 Q 14.43 137.81 17.92 112.33 Q 19.67 99.56 22.80 87.06 Q 25.41 76.67 29.06 70.06 Q 30.88 66.79 35.53 63.31 Q 43.49 57.37 52.76 53.78 Q 60.94 50.61 69.32 48.10 Q 76.43 45.97 86.29 43.86 Q 121.90 36.24 158.21 33.00 Z"/>
<path fill="rgb(225,232,237)" fill-opacity="1.000" d="M 352.25 33.71 Q 374.89 36.36 397.17 41.16 Q 415.93 45.20 431.75 50.75 Q 443.04 54.71 455.27 61.22 Q 470.31 69.23 480.06 80.69 Q 486.77 88.57 490.46 100.26 Q 496.48 119.35 498.81 139.24 Q 502.52 170.88 503.00 205.50 Q 503.35 230.85 503.14 243.25 Q 502.08 305.12 497.83 366.86 Q 497.82 366.95 497.82 369.14 Q 497.81 372.13 495.69 373.69 Q 489.86 377.95 481.10 379.54 Q 472.60 381.09 463.99 381.93 Q 445.79 383.70 427.50 383.81 Q 426.88 383.82 426.25 383.71 Q 426.75 382.97 426.75 381.00 Q 426.78 303.84 426.69 226.69 Q 426.67 208.78 426.44 200.01 Q 426.29 194.37 424.80 190.20 Q 421.35 180.53 414.16 172.93 Q 414.01 172.77 413.39 172.03 Q 411.95 170.33 412.29 173.50 L 412.25 311.14 Q 412.25 312.98 410.52 313.61 Q 356.35 333.09 296.09 339.24 A 5.01 4.99 -35.5 0 1 293.49 338.81 Q 284.98 334.92 275.59 331.69 Q 268.33 329.19 266.53 328.72 Q 261.85 327.48 257.05 327.35 Q 251.30 327.20 243.16 329.55 Q 231.41 332.95 219.66 338.41 Q 217.42 339.46 215.21 339.17 L 190.00 335.96 Q 190.00 335.80 190.00 335.64 Q 190.00 335.50 190.07 335.37 Q 245.12 236.20 299.26 136.54 Q 321.17 96.22 342.14 55.41 Q 347.61 44.76 352.25 33.71 Z"/>
<path fill="rgb(102,117,127)" fill-opacity="1.000" d="M 100.00 312.96 L 99.54 313.00 Q 99.07 291.16 99.30 269.31 Q 99.42 257.65 99.37 249.31 Q 99.13 211.30 99.43 173.28 A 1.68 1.60 -61.2 0 0 99.20 172.40 L 98.96 172.00 Q 99.18 170.93 99.60 171.51 Q 99.75 171.71 99.75 172.03 Q 99.76 239.89 99.75 307.75 Q 99.75 311.08 100.00 312.96 Z"/>
<path fill="rgb(153,170,181)" fill-opacity="1.000" d="M 426.25 383.71 L 412.50 384.00 L 412.69 173.53 Q 412.69 173.26 412.48 173.38 L 412.29 173.50 Q 411.95 170.33 413.39 172.03 Q 414.01 172.77 414.16 172.93 Q 421.35 180.53 424.80 190.20 Q 426.29 194.37 426.44 200.01 Q 426.67 208.78 426.69 226.69 Q 426.78 303.84 426.75 381.00 Q 426.75 382.97 426.25 383.71 Z"/>
<path fill="rgb(153,170,181)" fill-opacity="1.000" d="M 98.96 172.00 L 99.20 172.40 A 1.68 1.60 -61.2 0 1 99.43 173.28 Q 99.13 211.30 99.37 249.31 Q 99.42 257.65 99.30 269.31 Q 99.07 291.16 99.54 313.00 Q 99.47 334.00 99.50 355.00 Q 99.50 355.81 100.00 356.04 L 99.46 384.00 L 85.50 383.71 L 85.54 383.25 Q 86.03 316.29 85.75 283.25 Q 85.31 230.51 86.00 194.71 Q 88.67 183.21 97.19 173.44 Q 98.26 172.21 98.96 172.00 Z"/>
<path fill="rgb(41,47,51)" fill-opacity="1.000" d="M 412.50 384.00 L 412.28 357.09 A 0.93 0.91 78.6 0 0 411.01 356.23 Q 398.75 361.43 387.15 365.06 Q 348.92 377.00 309.65 381.00 A 0.64 0.63 72.9 0 0 309.16 381.93 Q 331.24 423.45 341.23 468.74 A 0.64 0.64 74.8 0 1 340.81 469.48 L 299.10 483.38 A 0.46 0.46 74.6 0 1 298.51 483.04 Q 291.41 449.75 277.76 418.64 Q 272.97 407.71 266.52 397.30 A 1.10 1.10 -24.0 0 0 265.27 396.82 Q 256.00 399.50 246.44 396.73 A 0.72 0.72 -65.8 0 0 245.63 397.04 Q 239.21 407.28 234.43 418.11 Q 220.86 448.87 213.58 482.56 A 0.83 0.82 15.6 0 1 212.51 483.16 L 171.11 469.37 A 0.56 0.55 -74.6 0 1 170.75 468.73 Q 180.82 422.98 202.91 381.74 A 0.45 0.44 17.7 0 0 202.57 381.09 Q 184.55 379.02 167.50 375.96 L 145.25 371.04 Q 122.33 365.30 100.65 355.98 Q 100.60 355.96 100.50 355.88 Q 100.26 355.72 100.00 356.04 Q 99.50 355.81 99.50 355.00 Q 99.47 334.00 99.54 313.00 L 100.00 312.96 Q 132.26 324.87 166.00 331.54 L 190.00 335.96 L 215.21 339.17 Q 217.42 339.46 219.66 338.41 Q 231.41 332.95 243.16 329.55 Q 251.30 327.20 257.05 327.35 Q 261.85 327.48 266.53 328.72 Q 268.33 329.19 275.59 331.69 Q 284.98 334.92 293.49 338.81 A 5.01 4.99 -35.5 0 0 296.09 339.24 Q 356.35 333.09 410.52 313.61 Q 412.25 312.98 412.25 311.14 L 412.29 173.50 L 412.48 173.38 Q 412.69 173.26 412.69 173.53 L 412.50 384.00 Z"/>
<path fill="rgb(102,117,127)" fill-opacity="1.000" d="M 86.00 194.71 Q 85.31 230.51 85.75 283.25 Q 86.03 316.29 85.54 383.25 Q 85.09 381.77 85.22 380.26 Q 85.43 377.67 85.43 377.59 Q 85.13 293.55 85.19 209.50 Q 85.20 202.08 86.00 194.71 Z"/>
<path fill="rgb(225,232,237)" fill-opacity="1.000" d="M 145.25 371.04 Q 118.36 419.74 100.31 454.06 Q 100.01 454.65 99.54 454.50 L 99.46 384.00 L 100.00 356.04 Q 100.26 355.72 100.50 355.88 Q 100.60 355.96 100.65 355.98 Q 122.33 365.30 145.25 371.04 Z"/>
<path fill="rgb(225,232,237)" fill-opacity="1.000" d="M 412.50 384.00 L 412.50 496.75 A 1.37 1.36 -7.5 0 1 411.48 498.07 Q 399.84 501.13 387.67 503.10 Q 364.82 506.80 341.74 508.62 Q 305.15 511.49 268.44 512.00 Q 255.94 512.00 243.44 512.00 Q 243.53 511.65 243.00 511.65 Q 190.11 511.75 139.31 505.44 Q 120.38 503.09 100.25 498.00 Q 99.80 497.89 99.46 497.25 Q 99.45 496.37 99.98 496.48 A 0.62 0.49 16.3 0 0 100.63 496.22 Q 101.27 494.74 103.06 491.56 Q 115.77 469.00 167.50 375.96 Q 184.55 379.02 202.57 381.09 A 0.45 0.44 17.7 0 1 202.91 381.74 Q 180.82 422.98 170.75 468.73 A 0.56 0.55 -74.6 0 0 171.11 469.37 L 212.51 483.16 A 0.83 0.82 15.6 0 0 213.58 482.56 Q 220.86 448.87 234.43 418.11 Q 239.21 407.28 245.63 397.04 A 0.72 0.72 -65.8 0 1 246.44 396.73 Q 256.00 399.50 265.27 396.82 A 1.10 1.10 -24.0 0 1 266.52 397.30 Q 272.97 407.71 277.76 418.64 Q 291.41 449.75 298.51 483.04 A 0.46 0.46 74.6 0 0 299.10 483.38 L 340.81 469.48 A 0.64 0.64 74.8 0 0 341.23 468.74 Q 331.24 423.45 309.16 381.93 A 0.64 0.63 72.9 0 1 309.65 381.00 Q 348.92 377.00 387.15 365.06 Q 398.75 361.43 411.01 356.23 A 0.93 0.91 78.6 0 1 412.28 357.09 L 412.50 384.00 Z"/>
<path fill="rgb(153,170,181)" fill-opacity="1.000" d="M 145.25 371.04 L 167.50 375.96 Q 115.77 469.00 103.06 491.56 Q 101.27 494.74 100.63 496.22 A 0.62 0.49 16.3 0 1 99.98 496.48 Q 99.45 496.37 99.46 497.25 Q 98.88 475.87 99.54 454.50 Q 100.01 454.65 100.31 454.06 Q 118.36 419.74 145.25 371.04 Z"/>
</svg>