<?xml version="1.0" encoding="UTF-8" standalone="no"?>
<!DOCTYPE svg PUBLIC "-//W3C//DTD SVG 1.1//EN" "http://www.w3.org/Graphics/SVG/1.1/DTD/svg11.dtd">
<svg xmlns="http://www.w3.org/2000/svg" version="1.1" viewBox="0 0 414 442">
<path fill="rgb(255,255,255)" fill-opacity="1.000" d="M 0.00 0.00 Q 139.03 0.00 278.06 0.00 Q 271.19 0.65 266.29 5.34 A 1.11 1.07 24.5 0 1 265.44 5.64 Q 255.45 4.92 249.09 12.56 Q 244.54 18.01 241.06 20.56 Q 222.44 34.21 210.41 53.92 Q 205.81 61.48 201.96 69.40 A 1.64 1.63 -70.5 0 1 200.14 70.28 Q 194.75 69.09 190.48 71.42 Q 188.20 72.66 186.11 76.11 Q 182.85 81.47 179.55 87.08 A 0.68 0.68 -67.7 0 1 178.79 87.40 Q 171.53 85.46 164.81 87.23 Q 155.40 89.71 155.12 99.50 Q 155.03 102.67 156.42 100.21 Q 157.47 98.34 158.20 95.47 A 0.73 0.73 9.6 0 1 158.98 94.92 Q 164.40 95.46 169.10 92.58 A 1.68 1.67 -47.2 0 1 170.73 92.51 Q 172.79 93.56 173.91 94.35 Q 181.27 99.56 189.14 95.11 Q 195.92 91.27 203.45 93.42 A 0.50 0.49 16.6 0 1 203.79 94.04 Q 199.93 107.06 204.12 119.60 A 1.54 1.53 51.1 0 1 203.99 120.84 Q 192.21 140.89 184.85 162.08 Q 176.40 186.46 171.67 211.83 Q 164.67 249.37 164.69 287.55 A 0.59 0.50 -89.5 0 0 165.18 288.14 L 168.96 288.22 A 0.60 0.54 -86.6 0 0 169.51 287.67 Q 171.39 262.59 175.62 237.73 Q 182.87 195.12 199.13 155.09 Q 205.30 139.91 213.68 125.27 A 0.56 0.54 32.0 0 0 213.50 124.55 L 207.47 120.49 A 1.28 1.15 -79.6 0 1 206.98 119.69 Q 205.00 107.10 207.50 95.25 Q 207.95 93.13 209.83 91.78 Q 210.24 91.48 210.29 92.00 Q 211.23 101.76 221.81 100.06 Q 228.04 99.06 234.14 101.83 Q 237.96 103.57 238.61 103.75 Q 241.38 104.56 243.50 104.25 Q 246.08 103.87 247.09 101.46 Q 248.08 99.11 248.71 98.55 Q 250.39 97.07 252.73 96.81 Q 255.19 96.53 255.25 96.51 Q 259.19 95.60 262.97 92.56 A 1.51 1.34 22.7 0 1 263.88 92.25 L 285.87 91.98 Q 286.43 91.97 286.14 92.44 Q 273.10 113.63 267.66 137.79 Q 261.92 163.29 266.81 189.32 Q 267.02 190.46 265.94 190.04 Q 260.47 187.95 254.95 189.53 Q 251.19 190.60 249.16 193.00 Q 246.52 196.13 247.69 200.23 Q 247.71 200.32 250.38 205.41 Q 253.03 210.45 251.18 215.63 Q 250.39 217.86 246.54 222.39 Q 233.76 237.45 231.36 257.48 Q 230.69 263.02 236.01 267.14 Q 237.66 268.42 239.57 269.27 Q 244.45 271.44 245.61 265.42 Q 248.57 250.14 257.23 237.55 Q 257.47 237.19 264.31 228.91 Q 269.30 222.86 272.68 215.68 Q 273.99 212.90 277.06 211.56 Q 289.59 206.09 302.50 204.50 Q 319.40 202.41 339.23 205.38 Q 343.27 205.98 344.00 202.50 Q 345.81 193.85 341.14 185.80 A 0.54 0.54 63.2 0 1 341.39 185.03 Q 349.36 181.64 356.25 176.27 Q 359.81 173.49 361.42 168.45 A 0.62 0.61 -71.0 0 1 362.21 168.06 Q 368.96 170.45 372.02 176.33 Q 373.38 178.95 375.51 180.89 Q 378.03 183.18 379.68 180.20 Q 380.70 178.35 381.31 176.35 Q 382.41 172.72 382.55 172.36 Q 386.53 162.33 393.51 154.02 Q 401.24 144.84 410.69 137.44 Q 413.31 135.39 414.00 131.56 Q 414.00 286.78 414.00 442.00 Q 207.00 442.00 0.00 442.00 Q 0.00 260.84 0.00 79.69 Q 0.86 88.80 6.58 95.30 Q 6.76 95.49 13.03 101.61 Q 16.25 104.75 19.54 107.81 Q 21.83 109.94 22.25 112.00 Q 22.75 114.50 22.06 117.31 Q 20.57 123.41 17.82 128.34 Q 16.13 131.37 15.69 133.63 Q 12.91 147.94 18.09 161.72 Q 22.74 174.06 29.31 182.94 Q 42.57 200.84 65.73 198.36 Q 84.18 196.38 96.27 182.51 Q 99.91 178.33 101.94 173.17 Q 102.92 170.71 100.27 170.75 Q 97.39 170.80 95.46 173.21 Q 87.82 182.76 76.06 186.32 Q 68.58 188.58 60.76 188.94 Q 53.79 189.25 47.99 185.47 Q 42.28 181.75 38.94 177.31 Q 32.27 168.46 28.24 157.78 Q 24.51 147.93 24.29 138.30 Q 24.05 127.72 27.15 117.38 Q 27.42 116.49 27.55 115.07 Q 27.65 113.89 28.00 112.74 Q 28.51 111.08 29.23 112.65 Q 29.62 113.51 30.06 114.38 Q 30.31 114.89 30.71 116.20 Q 31.34 118.26 33.28 119.20 Q 34.62 119.85 34.68 119.89 Q 45.86 126.30 57.00 132.79 Q 58.50 133.66 57.97 132.90 Q 57.84 132.71 57.59 132.53 Q 45.62 124.32 33.83 115.85 A 0.91 0.87 -71.2 0 1 33.47 115.07 Q 33.79 108.74 28.90 104.81 A 0.34 0.33 47.9 0 1 28.92 104.26 Q 30.91 102.99 29.56 101.19 Q 27.16 97.98 20.68 94.24 Q 18.41 92.93 17.12 90.66 Q 14.84 86.67 19.75 87.00 Q 24.69 87.33 31.47 89.53 A 0.29 0.29 -87.1 0 0 31.84 89.19 Q 30.79 83.63 30.06 78.02 Q 29.39 72.78 34.52 73.31 Q 36.37 73.50 38.23 73.70 Q 40.29 73.92 41.54 72.78 Q 42.29 72.10 42.68 69.91 Q 43.80 63.67 50.76 63.25 Q 54.80 63.01 51.99 60.10 Q 47.49 55.46 40.59 54.29 Q 31.45 52.73 22.28 54.20 Q 2.68 57.34 0.00 76.94 Q 0.00 38.47 0.00 0.00 Z M 139.06 65.69 Q 133.28 61.11 126.20 60.49 Q 122.93 60.21 112.80 61.31 Q 96.23 63.12 80.55 69.04 Q 68.81 73.47 58.68 81.39 A 2.89 2.48 -21.9 0 0 57.58 83.51 L 57.70 92.74 Q 57.70 93.29 58.14 92.93 Q 84.08 71.81 117.25 69.29 Q 124.67 68.73 128.68 69.89 Q 134.80 71.65 138.44 76.81 Q 143.47 83.95 147.90 96.46 Q 148.07 96.94 148.11 96.45 Q 148.97 86.27 146.13 76.46 Q 144.18 69.74 139.06 65.69 Z M 156.26 109.09 Q 159.12 107.78 162.00 109.26 Q 166.72 111.69 172.00 111.00 Q 174.95 110.61 176.94 108.07 Q 178.76 105.74 179.77 105.10 Q 184.02 102.45 189.25 102.43 Q 191.65 102.42 190.74 100.97 A 1.08 0.95 -11.8 0 0 189.94 100.52 Q 183.25 100.10 177.95 103.78 Q 177.30 104.23 175.43 106.55 Q 173.07 109.47 168.50 109.00 Q 165.33 108.67 164.71 106.30 Q 164.30 104.73 165.39 103.57 Q 166.46 102.42 168.26 102.25 Q 170.11 102.08 169.00 100.60 Q 167.37 98.42 164.07 98.10 A 1.33 1.31 -59.9 0 0 163.16 98.35 Q 156.95 102.75 153.58 108.74 Q 152.59 110.49 152.50 108.51 L 152.18 101.82 A 1.58 0.98 -76.7 0 0 151.88 100.92 Q 150.71 99.63 150.25 101.75 Q 149.76 104.01 150.51 108.84 Q 150.79 110.62 151.46 111.50 Q 152.99 113.49 155.02 110.76 Q 155.37 110.29 155.62 109.77 A 1.50 1.14 -83.8 0 1 156.26 109.09 Z M 137.38 148.45 Q 138.67 138.30 138.75 136.25 Q 139.02 128.96 137.50 124.50 Q 133.95 114.11 123.50 117.50 Q 117.14 119.56 118.07 126.03 Q 118.32 127.74 119.40 129.79 Q 120.56 132.00 121.50 133.25 Q 123.70 136.18 123.46 139.52 Q 123.25 142.50 123.25 145.14 A 0.76 0.76 87.1 0 1 122.57 145.90 Q 118.40 146.39 117.25 149.50 Q 115.95 153.01 117.60 158.52 A 0.55 0.54 -19.6 0 1 117.28 159.18 Q 113.44 160.76 110.56 164.81 Q 106.77 170.15 105.01 174.11 A 1.39 1.16 -46.0 0 0 104.94 175.05 Q 105.62 177.13 108.26 176.54 Q 111.02 175.93 112.84 177.70 A 1.12 0.95 -69.2 0 1 113.14 178.55 Q 112.93 181.15 114.21 183.12 Q 116.03 185.92 116.16 186.32 Q 117.26 189.67 116.38 193.27 A 1.15 0.97 -59.2 0 0 116.53 194.17 L 123.71 203.84 A 2.81 2.23 32.8 0 1 124.26 205.46 Q 124.04 211.87 124.85 217.93 Q 129.74 254.68 130.50 291.75 Q 130.65 299.06 129.30 314.40 Q 129.24 315.12 129.38 315.59 Q 129.80 317.00 130.87 315.83 A 1.72 1.37 74.3 0 0 131.24 314.95 Q 133.27 296.56 132.50 275.50 Q 131.40 245.32 128.42 220.26 Q 127.51 212.66 127.77 204.38 A 3.14 2.73 31.2 0 0 127.19 202.57 L 120.52 193.16 A 1.17 0.98 -59.1 0 1 120.38 192.26 Q 121.58 187.53 119.53 182.70 A 0.49 0.48 -14.8 0 1 119.92 182.04 Q 123.22 181.64 124.94 179.19 Q 126.23 177.34 126.97 173.15 Q 127.62 169.50 129.70 166.42 Q 130.84 164.74 131.56 166.64 Q 133.54 171.83 133.68 177.75 Q 134.30 204.26 133.25 230.75 Q 132.95 238.33 138.08 242.13 Q 139.50 243.18 140.77 243.05 Q 142.69 242.86 143.00 240.50 Q 143.71 235.16 143.75 216.25 Q 143.79 199.38 142.43 188.26 Q 141.98 184.54 144.50 182.12 A 1.36 1.36 -33.8 0 1 146.68 182.55 Q 149.29 188.46 150.75 194.75 Q 152.31 201.47 154.22 215.97 Q 154.91 221.23 158.06 225.73 Q 159.99 228.50 161.43 225.45 Q 162.71 222.74 162.47 219.75 Q 161.07 203.04 158.99 186.40 Q 157.68 175.93 156.13 171.28 Q 153.59 163.65 148.69 157.56 Q 144.56 152.43 137.77 149.15 A 0.68 0.66 16.5 0 1 137.38 148.45 Z M 63.29 168.55 A 0.48 0.47 -77.4 0 0 63.70 169.20 Q 72.44 169.69 80.34 165.74 Q 88.29 161.77 90.10 154.82 Q 90.76 152.32 92.82 150.76 Q 96.04 148.31 96.47 145.61 Q 96.81 143.46 94.58 140.47 Q 92.87 138.19 90.80 136.18 A 1.11 0.97 -51.8 0 1 90.73 134.86 L 94.97 128.38 A 1.19 0.94 56.7 0 0 95.05 127.46 Q 94.17 124.63 91.97 125.49 Q 90.87 125.92 89.52 127.57 Q 87.33 130.25 85.31 133.06 Q 84.03 134.85 84.24 136.42 Q 84.37 137.45 85.92 139.13 Q 88.45 141.89 90.76 144.61 A 0.80 0.79 52.1 0 1 90.62 145.77 Q 86.43 148.78 84.88 153.43 Q 83.58 157.35 82.93 158.29 Q 80.51 161.82 76.46 163.73 Q 70.65 166.46 64.31 167.54 Q 63.65 167.65 63.29 168.55 Z M 309.25 242.70 Q 308.46 236.39 309.10 230.08 Q 309.28 228.32 309.08 227.43 Q 308.45 224.64 305.83 226.62 A 1.26 1.19 76.4 0 0 305.37 227.43 Q 303.64 240.37 306.18 252.53 A 1.54 1.53 -4.6 0 0 307.62 253.75 Q 326.05 254.40 344.19 256.87 A 0.61 0.59 12.5 0 0 344.85 256.47 Q 345.86 253.35 346.00 247.50 Q 346.48 227.75 338.49 208.50 A 1.98 1.97 76.9 0 0 336.54 207.28 Q 334.02 207.45 334.93 210.19 Q 340.82 228.00 339.23 246.98 A 0.43 0.43 9.6 0 1 338.69 247.36 Q 324.27 243.69 309.82 243.20 A 0.59 0.57 -2.8 0 1 309.25 242.70 Z M 306.69 216.19 Q 292.99 231.27 286.71 249.15 Q 286.44 249.90 286.41 250.37 Q 286.28 251.86 287.61 251.29 A 1.27 1.02 -87.0 0 0 288.23 250.60 Q 295.80 229.59 311.62 213.87 Q 312.06 213.44 312.13 212.99 Q 312.28 212.00 311.30 212.07 Q 310.74 212.11 310.21 212.57 Q 309.05 213.59 306.69 216.19 Z M 354.54 319.15 Q 356.39 317.52 358.47 315.23 Q 362.97 310.28 360.10 305.03 Q 359.21 303.40 357.66 302.15 Q 356.17 300.94 354.41 300.12 Q 347.94 297.13 341.05 295.51 Q 338.78 294.98 339.64 292.81 Q 341.72 287.54 341.38 282.01 Q 340.62 269.82 334.81 259.14 A 1.68 1.33 82.9 0 0 334.12 258.46 Q 331.85 257.40 332.08 260.24 Q 332.76 268.74 332.91 277.25 Q 333.02 283.27 330.94 287.44 Q 326.61 296.08 331.91 302.14 Q 333.85 304.37 336.81 305.34 Q 339.66 306.27 342.75 306.26 Q 346.89 306.26 350.99 306.83 Q 352.92 307.10 353.78 308.10 A 1.01 1.01 -34.8 0 1 353.50 309.65 Q 347.51 312.89 341.29 315.52 Q 336.65 317.49 335.72 321.87 Q 335.09 324.85 336.57 327.42 Q 338.22 330.30 341.50 331.00 Q 345.71 331.90 353.74 331.13 Q 367.09 329.87 371.00 342.25 Q 371.67 344.37 369.44 345.19 Q 354.96 350.48 348.01 363.88 Q 346.74 366.32 346.76 367.94 Q 346.80 370.50 349.06 371.94 Q 352.58 374.18 355.74 370.99 Q 364.58 362.05 376.19 357.18 Q 383.31 354.19 384.10 347.79 Q 384.68 343.11 381.34 337.23 Q 373.07 322.66 354.78 319.96 Q 353.77 319.82 354.54 319.15 Z M 79.20 385.03 Q 71.42 386.50 63.78 388.60 Q 61.59 389.20 62.84 390.17 A 1.92 1.91 -31.4 0 0 64.42 390.55 Q 111.65 380.94 156.75 379.50 Q 184.68 378.61 213.65 384.13 Q 214.37 384.27 214.86 384.21 Q 216.33 384.02 215.51 382.94 A 1.51 1.15 -5.4 0 0 214.71 382.44 Q 209.40 381.13 204.08 379.93 Q 202.33 379.53 193.49 377.30 Q 185.58 375.30 178.00 374.50 Q 162.90 372.90 146.57 373.66 A 0.80 0.69 73.0 0 1 145.87 373.22 L 144.05 369.69 A 0.90 0.86 59.2 0 1 144.31 368.56 Q 148.71 365.55 147.90 360.71 A 1.18 1.18 82.2 0 1 148.94 359.34 Q 158.35 358.32 159.21 349.99 A 1.41 1.24 -62.8 0 0 158.98 349.08 Q 157.71 347.32 154.75 347.00 Q 147.88 346.26 152.75 341.50 Q 155.91 337.60 152.37 336.44 Q 151.19 336.06 148.47 336.20 Q 141.29 336.56 134.25 335.00 Q 129.89 334.04 132.44 331.44 Q 134.33 329.51 133.86 326.98 A 1.06 1.04 -81.1 0 0 133.33 326.24 Q 130.90 324.86 129.50 327.53 Q 127.95 330.50 126.92 333.67 Q 125.67 337.52 125.67 338.73 Q 125.69 342.10 130.45 342.78 Q 133.52 343.21 131.79 345.79 Q 127.41 352.29 134.90 353.57 Q 134.97 353.58 137.62 353.70 Q 140.42 353.82 139.80 356.18 Q 139.60 356.98 138.00 358.80 Q 135.35 361.84 137.43 366.18 A 0.66 0.65 -32.7 0 1 137.25 366.97 Q 131.19 371.79 126.33 377.13 A 1.24 1.23 -71.2 0 1 125.51 377.54 Q 94.54 380.06 63.81 384.67 Q 63.15 384.77 62.80 385.09 Q 62.06 385.79 62.88 386.42 A 1.42 1.05 -23.8 0 0 63.82 386.63 Q 72.72 385.63 78.75 384.50 Q 79.21 384.41 79.44 384.52 Q 80.15 384.85 79.20 385.03 Z M 292.55 419.27 Q 296.12 418.96 299.71 418.94 Q 299.96 418.94 300.13 418.81 Q 300.38 418.63 300.42 418.44 A 0.67 0.45 7.3 0 0 299.78 417.88 L 293.45 417.22 A 1.74 1.45 4.5 0 1 291.88 415.68 Q 292.10 410.99 293.06 407.69 Q 294.72 401.99 300.26 401.91 Q 300.28 401.91 302.36 402.08 Q 305.03 402.31 304.66 400.52 Q 304.42 399.39 303.13 398.55 Q 300.89 397.08 297.70 396.20 A 2.13 2.12 31.2 0 0 295.68 396.69 Q 294.31 397.94 292.77 399.09 Q 292.68 399.15 290.02 400.47 Q 288.04 401.45 287.82 404.01 Q 286.96 413.93 288.13 423.82 Q 288.88 430.11 289.17 436.44 Q 289.19 436.86 288.98 437.39 Q 288.24 439.32 289.99 441.13 Q 291.29 442.47 291.78 440.67 Q 292.23 439.04 291.51 437.68 Q 291.24 437.18 291.22 436.75 L 290.34 422.82 A 1.54 0.54 -51.4 0 1 290.65 421.94 L 291.90 419.78 A 1.02 0.63 -69.7 0 1 292.55 419.27 Z M 200.86 432.19 Q 202.26 416.82 205.59 401.32 Q 206.11 398.90 204.30 397.22 Q 202.57 395.61 201.17 397.56 Q 200.51 398.49 200.47 400.11 Q 200.20 410.54 200.05 420.96 Q 200.00 424.93 199.54 429.02 Q 199.11 432.91 198.70 437.04 A 0.68 0.67 -78.6 0 0 199.17 437.76 Q 201.83 438.56 204.09 438.65 Q 205.64 438.72 208.28 437.54 Q 211.06 436.30 214.13 436.06 Q 216.64 435.86 217.26 435.48 Q 218.92 434.46 218.19 431.81 Q 217.66 429.90 216.00 429.76 A 1.28 0.92 -57.1 0 0 215.14 430.10 Q 213.60 431.52 211.60 431.74 Q 209.04 432.01 208.92 432.04 Q 205.17 432.78 201.31 432.70 A 0.46 0.46 -86.6 0 1 200.86 432.19 Z M 261.45 414.37 Q 264.88 411.48 265.94 407.69 Q 267.23 403.10 264.25 399.21 A 1.30 1.27 -12.8 0 0 263.45 398.72 Q 258.04 397.78 252.66 398.64 Q 252.45 398.67 248.81 398.99 Q 244.20 399.39 244.37 404.34 Q 244.43 406.26 244.34 407.15 Q 244.11 409.47 244.25 410.00 Q 245.65 415.26 245.50 423.75 Q 245.46 425.87 244.61 426.90 A 1.50 0.52 -42.8 0 0 244.16 427.74 L 243.97 431.00 A 1.90 0.99 79.2 0 1 243.70 431.90 Q 241.60 434.87 243.81 437.65 A 2.31 2.06 -30.8 0 0 246.47 438.16 L 251.73 435.75 Q 253.35 435.01 255.37 436.08 Q 257.64 437.30 259.83 437.49 A 3.21 3.18 -65.4 0 0 262.40 436.52 Q 270.53 428.09 266.02 419.02 Q 264.54 416.05 261.53 414.86 A 0.29 0.29 35.9 0 1 261.45 414.37 Z M 52.16 424.66 Q 52.83 424.38 53.67 424.02 Q 54.83 423.52 54.80 422.96 Q 54.77 422.08 51.75 421.85 A 1.78 1.78 -3.0 0 1 50.14 420.40 Q 48.45 411.30 43.53 400.27 Q 42.73 398.49 40.79 398.67 Q 40.11 398.73 39.46 400.04 A 1.39 1.02 56.2 0 0 39.42 400.97 Q 40.14 403.40 38.27 407.39 Q 38.00 407.98 38.00 408.64 Q 38.01 412.06 37.34 415.15 Q 37.30 415.31 36.92 417.88 Q 36.59 420.06 35.06 422.31 Q 33.66 424.37 34.28 426.83 Q 34.98 429.64 34.87 430.42 Q 34.51 432.96 32.72 435.85 Q 32.13 436.80 31.93 437.91 Q 31.20 441.88 35.21 440.82 A 1.41 1.36 -78.0 0 0 35.99 440.29 Q 37.86 437.79 37.88 434.71 Q 37.89 431.63 37.97 431.32 Q 38.42 429.57 39.78 428.28 Q 42.16 426.00 45.20 425.02 Q 47.07 424.41 48.32 425.93 Q 51.40 429.66 52.90 434.07 Q 53.72 436.50 55.12 438.65 Q 56.60 440.91 55.84 438.51 Q 53.92 432.36 51.58 426.02 A 1.08 1.07 68.4 0 1 52.16 424.66 Z M 82.75 440.79 Q 87.30 441.81 87.90 437.29 Q 88.37 433.77 88.92 430.25 A 1.60 1.49 73.6 0 1 89.35 429.39 Q 91.39 427.37 93.80 425.79 Q 95.83 424.46 97.66 425.13 Q 98.89 425.58 100.25 427.51 Q 101.82 429.73 102.25 431.00 Q 103.77 435.45 106.40 439.28 Q 106.69 439.70 106.57 439.20 Q 105.02 432.76 102.29 426.64 A 1.56 1.55 -25.4 0 1 103.02 424.61 Q 106.68 422.79 104.86 422.18 Q 104.59 422.09 103.13 422.09 Q 102.15 422.08 101.41 421.57 Q 100.63 421.02 100.38 419.48 Q 98.73 409.46 94.09 400.44 Q 93.45 399.20 92.56 398.89 Q 91.10 398.39 90.21 400.05 A 1.45 1.09 57.9 0 0 90.13 400.98 Q 90.80 403.72 89.69 405.69 Q 88.35 408.06 88.44 410.14 Q 88.49 411.31 88.49 411.36 Q 88.33 417.83 85.11 423.58 A 3.37 3.34 49.7 0 0 84.89 426.37 Q 86.55 430.93 83.87 434.87 Q 82.88 436.32 82.71 437.40 Q 82.48 438.83 82.50 440.29 Q 79.96 437.57 79.06 435.94 Q 76.45 431.20 72.39 422.05 Q 71.09 419.12 73.94 417.44 Q 76.12 416.15 76.62 413.68 Q 76.82 412.70 76.99 409.32 Q 77.21 404.96 75.19 401.56 Q 73.45 398.65 69.97 398.64 Q 68.00 398.63 67.03 398.69 Q 65.45 398.79 64.16 399.65 A 2.31 2.29 76.4 0 0 63.13 401.35 Q 61.68 416.74 59.96 430.69 Q 59.61 433.58 59.77 436.50 Q 59.87 438.45 61.46 438.85 A 0.57 0.57 16.7 0 0 62.15 438.48 Q 62.45 437.59 61.89 436.81 A 1.62 1.06 36.7 0 1 61.57 435.93 Q 61.65 429.34 63.10 422.12 A 1.26 1.25 25.3 0 1 65.13 421.40 Q 67.55 423.38 69.06 425.94 Q 70.18 427.83 74.29 432.45 Q 74.82 433.05 77.68 436.97 Q 79.37 439.29 81.74 441.02 Q 82.63 441.67 82.75 440.79 Z M 133.81 416.69 L 134.52 409.50 A 1.08 0.93 -6.7 0 1 135.29 408.66 Q 137.49 408.04 139.81 407.96 Q 142.73 407.87 143.66 407.67 Q 145.58 407.25 147.36 406.47 Q 148.95 405.78 150.66 406.04 Q 154.51 406.64 153.77 404.96 Q 153.41 404.14 152.23 403.59 Q 146.90 401.15 141.25 401.75 Q 139.06 401.98 137.18 401.59 Q 133.52 400.84 133.24 400.81 Q 124.29 400.04 115.30 400.43 Q 115.24 400.43 112.20 400.42 Q 108.91 400.40 107.19 401.94 Q 103.91 404.85 108.00 406.00 Q 112.05 407.13 117.22 405.47 A 0.34 0.33 -7.9 0 1 117.66 405.80 Q 117.56 407.80 117.73 409.79 Q 117.97 412.66 117.93 414.23 Q 117.59 425.91 118.04 437.58 Q 118.07 438.25 118.39 438.71 Q 119.34 440.08 119.83 438.63 Q 120.00 438.14 120.00 437.36 Q 120.03 418.39 121.00 413.25 Q 121.93 408.30 120.29 405.00 A 0.37 0.35 72.9 0 1 120.55 404.47 L 130.42 403.40 A 0.49 0.47 -83.8 0 1 130.91 404.04 Q 130.19 406.25 131.87 407.91 A 1.10 0.95 27.7 0 1 132.20 408.75 Q 131.13 419.95 131.75 422.75 Q 132.47 426.01 133.16 429.27 Q 134.47 435.53 140.81 436.43 Q 142.56 436.68 148.25 436.75 Q 150.32 436.78 149.87 435.27 A 0.99 0.83 1.4 0 0 149.20 434.68 Q 146.74 434.06 144.24 433.63 Q 141.01 433.07 139.46 432.20 Q 133.49 428.85 133.73 421.25 A 0.61 0.58 87.3 0 1 134.24 420.66 L 145.02 419.23 Q 149.18 418.68 145.38 417.03 Q 143.24 416.10 139.30 416.01 Q 139.19 416.01 137.70 415.88 Q 135.77 415.71 134.20 416.88 Q 133.76 417.20 133.81 416.69 Z M 19.06 411.81 Q 20.68 409.52 29.70 403.00 Q 31.95 401.37 29.73 400.84 A 1.20 1.01 -52.6 0 0 28.83 401.04 Q 21.45 406.21 14.67 412.20 Q 13.03 413.65 13.64 411.54 Q 14.19 409.62 14.14 407.53 Q 14.10 405.39 13.09 404.22 Q 11.56 402.45 9.02 403.76 Q 7.37 404.62 7.45 406.48 Q 7.81 415.28 8.76 422.75 Q 9.41 427.85 9.19 433.00 Q 9.09 435.63 10.32 437.95 Q 11.16 439.54 11.89 437.89 Q 12.30 436.95 12.19 435.89 Q 12.05 434.59 12.05 434.47 Q 11.97 427.46 13.10 420.33 A 0.78 0.78 -71.5 0 1 14.24 419.76 Q 16.67 421.07 18.96 423.00 Q 19.94 423.83 22.91 427.11 Q 26.11 430.64 29.98 433.45 A 0.75 0.50 42.5 0 0 30.70 433.56 Q 30.90 433.43 30.94 433.17 Q 30.99 432.88 30.71 432.53 Q 29.14 430.54 27.42 428.65 Q 25.85 426.93 24.23 424.73 Q 20.99 420.33 16.49 416.17 A 1.07 1.07 -44.0 0 1 16.52 414.58 Q 18.04 413.27 19.06 411.81 Z M 369.33 416.43 L 370.00 409.73 A 1.58 1.43 -3.3 0 1 371.26 408.45 Q 374.10 407.91 377.24 407.76 Q 380.21 407.62 384.32 405.84 A 3.36 3.34 46.4 0 1 387.17 405.92 Q 389.62 407.18 389.47 405.24 A 2.31 2.31 4.7 0 0 387.72 403.18 Q 380.13 401.30 372.99 401.72 Q 372.52 401.75 372.05 401.53 Q 368.08 399.69 366.56 403.56 Q 365.62 405.98 367.57 407.97 A 1.07 1.00 26.7 0 1 367.88 408.81 Q 367.45 412.39 367.17 415.99 Q 366.78 420.96 367.98 425.70 Q 368.02 425.83 368.71 429.37 Q 369.31 432.41 371.49 434.30 Q 373.52 436.07 377.46 436.54 Q 380.70 436.92 383.99 436.66 Q 386.40 436.47 385.21 435.08 Q 384.78 434.58 383.97 434.41 Q 381.74 433.94 379.49 433.58 Q 376.65 433.13 375.18 432.33 Q 369.46 429.24 369.25 422.00 A 1.32 1.23 -8.4 0 1 370.25 420.75 Q 374.93 419.58 379.75 419.29 Q 379.85 419.28 381.23 419.41 Q 382.47 419.52 382.70 418.25 A 0.65 0.59 15.9 0 0 382.28 417.57 Q 377.18 415.66 371.74 415.97 Q 371.50 415.98 370.85 416.30 L 369.80 416.81 Q 369.26 417.07 369.33 416.43 Z M 338.69 422.81 Q 342.66 427.37 340.55 432.43 Q 339.62 434.66 337.66 435.26 Q 335.37 435.97 333.17 434.54 A 1.03 0.82 45.6 0 0 332.28 434.43 Q 330.98 435.03 331.44 436.07 Q 331.74 436.77 332.75 437.18 Q 338.53 439.51 342.39 434.44 Q 344.61 431.52 344.25 428.50 Q 343.57 422.81 338.74 418.77 Q 336.88 417.21 334.96 415.70 Q 334.91 415.65 333.61 414.76 Q 330.88 412.90 332.56 409.81 Q 334.91 405.50 340.06 406.94 Q 340.72 407.12 341.69 408.34 Q 342.58 409.47 343.21 409.76 Q 344.65 410.41 345.09 408.70 Q 345.32 407.84 345.05 406.83 Q 344.34 404.11 342.36 402.10 A 0.87 0.84 -30.0 0 0 341.52 401.89 Q 339.66 402.42 337.82 403.00 Q 337.73 403.02 335.00 403.69 Q 331.93 404.44 330.10 406.83 Q 328.38 409.10 328.48 412.02 Q 328.61 416.42 332.81 418.77 Q 334.61 419.78 334.65 419.81 Q 337.78 421.77 338.69 422.81 Z M 358.93 407.74 Q 359.79 409.16 360.44 409.56 Q 361.80 410.40 362.56 409.53 Q 363.07 408.93 362.99 407.85 Q 362.78 405.11 360.33 402.36 A 1.55 1.54 -33.2 0 0 358.53 401.99 Q 356.36 402.98 354.07 403.46 Q 351.41 404.01 350.56 404.49 Q 348.85 405.45 347.81 407.06 Q 344.54 412.15 347.62 416.01 Q 348.51 417.13 352.22 419.54 Q 355.64 421.76 356.81 423.19 Q 360.62 427.84 358.27 432.65 Q 357.23 434.77 355.29 435.29 Q 353.06 435.89 350.91 434.53 A 0.98 0.80 45.0 0 0 350.04 434.44 Q 348.94 435.00 349.26 436.02 Q 349.50 436.77 350.48 437.20 Q 353.70 438.64 356.50 437.50 Q 361.57 435.44 362.01 430.55 Q 362.34 426.98 360.28 423.23 Q 358.40 419.81 355.08 417.42 Q 352.76 415.75 350.86 414.18 Q 349.06 412.70 350.05 410.58 Q 352.61 405.15 358.23 407.14 A 1.40 1.19 80.8 0 1 358.93 407.74 Z M 390.68 417.32 Q 393.64 419.50 396.63 421.64 Q 400.64 424.51 400.73 429.00 Q 400.79 431.92 399.39 433.75 Q 397.56 436.14 393.91 435.20 A 1.96 1.02 60.7 0 1 393.12 434.68 Q 392.04 433.55 391.05 435.08 A 1.34 1.34 -63.7 0 0 391.72 437.06 Q 398.20 439.41 401.91 434.45 Q 404.18 431.40 403.75 428.25 Q 402.93 422.26 397.80 418.17 Q 395.57 416.39 392.99 414.68 Q 390.99 413.35 391.63 411.03 Q 393.06 405.83 397.76 406.56 Q 399.44 406.82 400.63 408.01 Q 403.63 411.00 404.47 408.85 Q 404.92 407.69 404.36 406.17 Q 403.70 404.42 402.32 402.51 A 1.64 1.64 60.5 0 0 400.34 401.96 Q 398.22 402.88 396.04 403.39 Q 392.88 404.14 391.80 404.85 Q 389.27 406.51 388.26 409.40 Q 387.47 411.65 388.05 413.64 Q 388.69 415.86 390.68 417.32 Z M 177.82 433.67 Q 181.15 436.08 184.75 436.00 Q 188.72 435.91 190.97 432.71 Q 193.25 429.45 194.00 425.55 Q 194.63 422.24 192.75 424.54 Q 192.46 424.90 191.99 425.14 Q 190.45 425.94 189.19 427.94 Q 186.33 432.47 181.70 431.71 Q 178.39 431.17 176.24 428.37 Q 174.16 425.66 173.82 421.99 Q 173.32 416.40 174.56 413.56 Q 177.99 405.72 185.63 408.68 Q 187.20 409.28 188.10 409.04 Q 190.09 408.49 189.00 406.00 Q 187.06 401.57 182.52 402.43 Q 181.69 402.58 179.76 403.55 Q 178.40 404.24 176.93 404.63 Q 174.13 405.36 173.38 406.08 Q 172.01 407.39 171.44 409.69 Q 169.91 415.88 169.75 417.25 Q 168.99 423.95 172.72 428.76 Q 174.88 431.52 177.82 433.67 Z M 223.76 433.60 Q 228.17 435.98 232.18 433.85 Q 234.01 432.88 235.29 431.05 Q 236.53 429.29 237.14 427.17 Q 240.38 415.91 239.30 404.24 A 1.06 0.90 -80.2 0 0 238.84 403.46 Q 237.93 402.94 237.27 403.63 Q 236.81 404.10 236.80 405.15 Q 236.73 410.08 236.64 415.00 Q 236.52 421.64 233.69 427.47 Q 232.50 429.90 230.52 430.79 Q 227.38 432.21 225.41 429.83 Q 223.94 428.05 223.92 424.29 Q 223.88 416.67 225.63 409.25 Q 226.11 407.19 225.86 406.21 Q 225.35 404.19 222.99 404.22 A 1.37 1.31 -65.8 0 0 222.11 404.58 Q 220.10 406.47 221.46 409.16 A 2.74 2.68 37.1 0 1 221.71 410.83 Q 220.62 417.18 220.31 423.50 Q 220.14 427.20 221.32 430.70 Q 221.97 432.64 223.76 433.60 Z M 310.69 432.06 Q 314.65 435.32 318.58 434.32 Q 321.95 433.46 324.30 429.78 Q 328.45 423.29 324.06 415.19 Q 322.91 413.05 320.98 412.59 A 1.08 1.04 -56.4 0 0 320.08 412.79 Q 318.42 414.09 319.81 415.94 Q 321.70 418.44 322.00 421.00 Q 322.21 422.79 320.58 428.22 A 1.60 1.54 80.8 0 1 320.04 429.00 Q 316.76 431.51 314.33 429.38 Q 312.81 428.03 311.97 425.11 Q 310.05 418.39 314.19 412.19 Q 314.75 411.34 317.00 410.50 Q 320.47 409.20 318.93 405.79 Q 317.96 403.66 315.96 404.88 Q 313.84 406.17 311.82 407.82 Q 303.29 414.80 306.23 425.80 Q 307.12 429.13 310.69 432.06 Z"/>
<path fill="rgb(35,31,30)" fill-opacity="1.000" d="M 278.06 0.00 Q 279.44 0.00 280.81 0.00 Q 289.71 1.31 298.25 7.75 Q 306.78 14.18 308.50 24.77 Q 308.69 25.92 307.78 25.19 Q 305.78 23.56 304.31 21.19 Q 298.10 11.10 287.62 5.69 Q 281.97 2.76 276.81 5.81 Q 272.28 8.50 268.31 13.31 Q 264.22 18.28 264.28 24.00 Q 264.32 28.51 264.75 33.00 Q 264.98 35.42 266.44 33.19 Q 268.19 30.52 269.18 27.48 Q 271.31 20.93 277.36 18.49 Q 280.40 17.26 280.45 17.23 Q 283.95 15.61 287.50 14.09 Q 290.06 12.98 291.26 13.02 Q 293.76 13.10 294.54 16.06 Q 295.43 19.43 292.56 21.56 Q 289.15 24.09 285.41 24.75 Q 283.97 25.00 284.77 25.52 Q 285.02 25.69 285.40 25.69 Q 290.95 25.75 296.50 28.00 Q 303.51 30.85 306.74 36.87 Q 308.96 41.00 309.28 47.60 Q 309.57 53.55 308.25 58.75 Q 305.15 71.00 293.35 71.98 Q 288.72 72.37 285.34 70.80 Q 281.42 68.98 279.16 64.97 Q 278.47 63.74 277.96 63.34 Q 276.91 62.52 275.80 62.95 Q 274.72 63.37 274.31 64.96 Q 273.99 66.20 273.85 67.47 Q 273.66 69.14 273.10 69.85 Q 271.62 71.74 269.00 70.25 Q 263.14 66.93 263.56 60.16 Q 263.72 57.76 263.72 57.71 Q 263.78 54.48 263.76 51.26 Q 263.75 50.31 263.47 49.80 Q 262.79 48.57 261.56 49.81 Q 258.35 53.06 255.61 59.83 Q 253.10 66.03 249.40 71.55 Q 247.58 74.27 244.32 77.73 Q 241.59 80.62 238.81 83.57 Q 237.41 85.06 236.95 87.04 Q 236.45 89.18 239.07 89.22 Q 257.91 89.55 276.75 89.50 Q 279.42 89.49 281.22 88.86 A 1.27 1.05 -0.4 0 0 281.94 88.26 Q 282.61 86.91 281.07 85.93 Q 277.51 83.67 275.02 80.68 Q 274.06 79.54 275.48 79.99 Q 278.12 80.84 280.30 82.49 Q 284.24 85.46 288.33 88.22 A 0.54 0.54 -54.3 0 0 289.06 88.10 Q 294.49 81.07 300.56 76.06 Q 304.09 73.16 308.98 71.13 A 0.84 0.58 84.5 0 0 309.36 70.45 L 309.62 66.23 A 0.42 0.36 15.5 0 1 310.20 65.96 Q 316.59 68.85 322.50 69.75 Q 325.06 70.14 336.25 71.45 Q 342.57 72.19 345.48 73.61 Q 349.96 75.81 352.91 79.97 Q 355.89 84.17 356.76 84.99 Q 360.01 88.06 363.56 89.44 Q 371.03 92.34 374.58 94.72 Q 392.96 107.09 408.52 122.87 Q 408.58 122.94 410.45 124.65 Q 413.07 127.06 414.00 130.56 Q 414.00 131.06 414.00 131.56 Q 413.31 135.39 410.69 137.44 Q 401.24 144.84 393.51 154.02 Q 386.53 162.33 382.55 172.36 Q 382.41 172.72 381.31 176.35 Q 380.70 178.35 379.68 180.20 Q 378.03 183.18 375.51 180.89 Q 373.38 178.95 372.02 176.33 Q 368.96 170.45 362.21 168.06 A 0.62 0.61 -71.0 0 0 361.42 168.45 Q 359.81 173.49 356.25 176.27 Q 349.36 181.64 341.39 185.03 A 0.54 0.54 63.2 0 0 341.14 185.80 Q 345.81 193.85 344.00 202.50 Q 343.27 205.98 339.23 205.38 Q 319.40 202.41 302.50 204.50 Q 289.59 206.09 277.06 211.56 Q 273.99 212.90 272.68 215.68 Q 269.30 222.86 264.31 228.91 Q 257.47 237.19 257.23 237.55 Q 248.57 250.14 245.61 265.42 Q 244.45 271.44 239.57 269.27 Q 237.66 268.42 236.01 267.14 Q 230.69 263.02 231.36 257.48 Q 233.76 237.45 246.54 222.39 Q 250.39 217.86 251.18 215.63 Q 253.03 210.45 250.38 205.41 Q 247.71 200.32 247.69 200.23 Q 246.52 196.13 249.16 193.00 Q 251.19 190.60 254.95 189.53 Q 260.47 187.95 265.94 190.04 Q 267.02 190.46 266.81 189.32 Q 261.92 163.29 267.66 137.79 Q 273.10 113.63 286.14 92.44 Q 286.43 91.97 285.87 91.98 L 263.88 92.25 A 1.51 1.34 22.7 0 0 262.97 92.56 Q 259.19 95.60 255.25 96.51 Q 255.19 96.53 252.73 96.81 Q 250.39 97.07 248.71 98.55 Q 248.08 99.11 247.09 101.46 Q 246.08 103.87 243.50 104.25 Q 241.38 104.56 238.61 103.75 Q 237.96 103.57 234.14 101.83 Q 228.04 99.06 221.81 100.06 Q 211.23 101.76 210.29 92.00 Q 210.24 91.48 209.83 91.78 Q 207.95 93.13 207.50 95.25 Q 205.00 107.10 206.98 119.69 A 1.28 1.15 -79.6 0 0 207.47 120.49 L 213.50 124.55 A 0.56 0.54 32.0 0 1 213.68 125.27 Q 205.30 139.91 199.13 155.09 Q 182.87 195.12 175.62 237.73 Q 171.39 262.59 169.51 287.67 A 0.60 0.54 -86.6 0 1 168.96 288.22 L 165.18 288.14 A 0.59 0.50 -89.5 0 1 164.69 287.55 Q 164.67 249.37 171.67 211.83 Q 176.40 186.46 184.85 162.08 Q 192.21 140.89 203.99 120.84 A 1.54 1.53 51.1 0 0 204.12 119.60 Q 199.93 107.06 203.79 94.04 A 0.50 0.49 16.6 0 0 203.45 93.42 Q 195.92 91.27 189.14 95.11 Q 181.27 99.56 173.91 94.35 Q 172.79 93.56 170.73 92.51 A 1.68 1.67 -47.2 0 0 169.10 92.58 Q 164.40 95.46 158.98 94.92 A 0.73 0.73 9.6 0 0 158.20 95.47 Q 157.47 98.34 156.42 100.21 Q 155.03 102.67 155.12 99.50 Q 155.40 89.71 164.81 87.23 Q 171.53 85.46 178.79 87.40 A 0.68 0.68 -67.7 0 0 179.55 87.08 Q 182.85 81.47 186.11 76.11 Q 188.20 72.66 190.48 71.42 Q 194.75 69.09 200.14 70.28 A 1.64 1.63 -70.5 0 0 201.96 69.40 Q 205.81 61.48 210.41 53.92 Q 222.44 34.21 241.06 20.56 Q 244.54 18.01 249.09 12.56 Q 255.45 4.92 265.44 5.64 A 1.11 1.07 24.5 0 0 266.29 5.34 Q 271.19 0.65 278.06 0.00 Z M 201.18 74.96 Q 199.11 75.05 197.05 74.94 Q 194.03 74.77 192.59 75.56 Q 190.73 76.58 188.94 78.69 Q 185.06 83.23 182.74 88.77 Q 182.15 90.18 183.63 89.79 Q 194.15 86.97 205.90 88.81 A 1.87 1.85 -65.8 0 0 207.64 88.14 Q 209.06 86.37 210.78 85.08 Q 212.28 83.95 213.45 84.02 Q 215.09 84.10 216.05 86.04 A 0.83 0.82 76.6 0 0 216.79 86.50 L 227.08 86.50 A 1.11 1.11 -73.0 0 0 228.00 86.01 Q 232.75 79.08 238.78 74.05 Q 245.37 68.54 246.75 60.25 Q 247.23 57.36 247.60 56.35 Q 248.42 54.11 249.56 52.81 Q 252.50 49.48 255.20 45.92 Q 256.42 44.31 255.00 42.87 Q 253.37 41.21 253.64 38.26 Q 255.11 22.69 262.94 9.24 Q 263.19 8.80 262.69 8.89 Q 256.69 9.87 252.91 14.67 Q 248.25 20.57 242.31 25.13 Q 238.17 28.31 238.13 28.34 Q 225.78 38.46 216.69 50.94 Q 208.87 61.67 201.92 74.50 A 0.88 0.86 12.2 0 1 201.18 74.96 Z M 337.31 155.94 Q 335.97 155.35 337.31 155.06 Q 344.71 153.50 352.04 155.34 Q 361.21 157.64 369.64 162.43 A 0.68 0.68 -61.3 0 0 370.58 162.15 Q 373.32 156.87 377.04 152.53 Q 386.23 141.81 397.11 132.82 A 0.69 0.68 -30.6 0 0 397.32 132.04 Q 393.82 123.16 386.47 117.02 Q 374.90 107.37 360.56 102.69 Q 353.63 100.42 350.41 93.68 Q 347.93 88.49 347.57 88.11 Q 344.79 85.08 339.50 85.75 Q 331.76 86.73 321.90 83.42 Q 315.45 81.25 311.20 75.34 A 0.76 0.75 -28.0 0 0 310.30 75.07 Q 305.05 77.08 300.86 80.85 Q 292.19 88.67 286.26 98.75 Q 276.15 115.95 270.86 135.03 Q 268.11 144.93 267.14 154.65 Q 265.37 172.19 268.25 189.77 Q 268.82 193.21 271.73 191.29 Q 280.52 185.48 290.81 183.50 Q 297.24 182.27 310.73 182.02 Q 321.60 181.82 332.44 183.01 Q 334.59 183.25 336.40 182.43 Q 346.80 177.78 354.43 169.71 Q 355.73 168.34 353.85 168.46 Q 347.48 168.88 341.79 169.95 Q 316.06 174.79 289.91 180.63 A 2.37 2.33 -25.6 0 1 287.57 179.83 L 276.74 166.49 Q 275.53 165.00 277.07 163.81 Q 278.76 162.50 280.10 164.16 Q 284.42 169.46 289.46 175.46 A 1.24 1.23 59.2 0 0 290.84 175.82 Q 312.42 167.54 334.75 163.23 Q 343.88 161.46 347.25 161.75 Q 349.96 161.98 348.78 159.88 Q 347.95 158.41 346.27 158.25 Q 341.58 157.82 337.31 155.94 Z M 264.9800 202.0409 A 2.61 1.88 -0.2 0 0 262.3634 200.1700 A 2.61 1.88 -0.2 0 0 259.7600 202.0591 A 2.61 1.88 -0.2 0 0 262.3766 203.9300 A 2.61 1.88 -0.2 0 0 264.9800 202.0409 Z"/>
<path fill="rgb(255,255,255)" fill-opacity="1.000" d="M 280.81 0.00 Q 347.41 0.00 414.00 0.00 Q 414.00 65.28 414.00 130.56 Q 413.07 127.06 410.45 124.65 Q 408.58 122.94 408.52 122.87 Q 392.96 107.09 374.58 94.72 Q 371.03 92.34 363.56 89.44 Q 360.01 88.06 356.76 84.99 Q 355.89 84.17 352.91 79.97 Q 349.96 75.81 345.48 73.61 Q 342.57 72.19 336.25 71.45 Q 325.06 70.14 322.50 69.75 Q 316.59 68.85 310.20 65.96 A 0.42 0.36 15.5 0 0 309.62 66.23 L 309.36 70.45 A 0.84 0.58 84.5 0 1 308.98 71.13 Q 304.09 73.16 300.56 76.06 Q 294.49 81.07 289.06 88.10 A 0.54 0.54 -54.3 0 1 288.33 88.22 Q 284.24 85.46 280.30 82.49 Q 278.12 80.84 275.48 79.99 Q 274.06 79.54 275.02 80.68 Q 277.51 83.67 281.07 85.93 Q 282.61 86.91 281.94 88.26 A 1.27 1.05 -0.4 0 1 281.22 88.86 Q 279.42 89.49 276.75 89.50 Q 257.91 89.55 239.07 89.22 Q 236.45 89.18 236.95 87.04 Q 237.41 85.06 238.81 83.57 Q 241.59 80.62 244.32 77.73 Q 247.58 74.27 249.40 71.55 Q 253.10 66.03 255.61 59.83 Q 258.35 53.06 261.56 49.81 Q 262.79 48.57 263.47 49.80 Q 263.75 50.31 263.76 51.26 Q 263.78 54.48 263.72 57.71 Q 263.72 57.76 263.56 60.16 Q 263.14 66.93 269.00 70.25 Q 271.62 71.74 273.10 69.85 Q 273.66 69.14 273.85 67.47 Q 273.99 66.20 274.31 64.96 Q 274.72 63.37 275.80 62.95 Q 276.91 62.52 277.96 63.34 Q 278.47 63.74 279.16 64.97 Q 281.42 68.98 285.34 70.80 Q 288.72 72.37 293.35 71.98 Q 305.15 71.00 308.25 58.75 Q 309.57 53.55 309.28 47.60 Q 308.96 41.00 306.74 36.87 Q 303.51 30.85 296.50 28.00 Q 290.95 25.75 285.40 25.69 Q 285.02 25.69 284.77 25.52 Q 283.97 25.00 285.41 24.75 Q 289.15 24.09 292.56 21.56 Q 295.43 19.43 294.54 16.06 Q 293.76 13.10 291.26 13.02 Q 290.06 12.98 287.50 14.09 Q 283.95 15.61 280.45 17.23 Q 280.40 17.26 277.36 18.49 Q 271.31 20.93 269.18 27.48 Q 268.19 30.52 266.44 33.19 Q 264.98 35.42 264.75 33.00 Q 264.32 28.51 264.28 24.00 Q 264.22 18.28 268.31 13.31 Q 272.28 8.50 276.81 5.81 Q 281.97 2.76 287.62 5.69 Q 298.10 11.10 304.31 21.19 Q 305.78 23.56 307.78 25.19 Q 308.69 25.92 308.50 24.77 Q 306.78 14.18 298.25 7.75 Q 289.71 1.31 280.81 0.00 Z"/>
<path fill="rgb(255,255,255)" fill-opacity="1.000" d="M 201.92 74.50 Q 208.87 61.67 216.69 50.94 Q 225.78 38.46 238.13 28.34 Q 238.17 28.31 242.31 25.13 Q 248.25 20.57 252.91 14.67 Q 256.69 9.87 262.69 8.89 Q 263.19 8.80 262.94 9.24 Q 255.11 22.69 253.64 38.26 Q 253.37 41.21 255.00 42.87 Q 256.42 44.31 255.20 45.92 Q 252.50 49.48 249.56 52.81 Q 248.42 54.11 247.60 56.35 Q 247.23 57.36 246.75 60.25 Q 245.37 68.54 238.78 74.05 Q 232.75 79.08 228.00 86.01 A 1.11 1.11 -73.0 0 1 227.08 86.50 L 216.79 86.50 A 0.83 0.82 76.6 0 1 216.05 86.04 Q 215.09 84.10 213.45 84.02 Q 212.28 83.95 210.78 85.08 Q 209.06 86.37 207.64 88.14 A 1.87 1.85 -65.8 0 1 205.90 88.81 Q 194.15 86.97 183.63 89.79 Q 182.15 90.18 182.74 88.77 Q 185.06 83.23 188.94 78.69 Q 190.73 76.58 192.59 75.56 Q 194.03 74.77 197.05 74.94 Q 199.11 75.05 201.18 74.96 A 0.88 0.86 12.2 0 0 201.92 74.50 Z"/>
<path fill="rgb(35,31,30)" fill-opacity="1.000" d="M 0.00 79.69 Q 0.00 78.31 0.00 76.94 Q 2.68 57.34 22.28 54.20 Q 31.45 52.73 40.59 54.29 Q 47.49 55.46 51.99 60.10 Q 54.80 63.01 50.76 63.25 Q 43.80 63.67 42.68 69.91 Q 42.29 72.10 41.54 72.78 Q 40.29 73.92 38.23 73.70 Q 36.37 73.50 34.52 73.31 Q 29.39 72.78 30.06 78.02 Q 30.79 83.63 31.84 89.19 A 0.29 0.29 -87.1 0 1 31.47 89.53 Q 24.69 87.33 19.75 87.00 Q 14.84 86.67 17.12 90.66 Q 18.41 92.93 20.68 94.24 Q 27.16 97.98 29.56 101.19 Q 30.91 102.99 28.92 104.26 A 0.34 0.33 47.9 0 0 28.90 104.81 Q 33.79 108.74 33.47 115.07 A 0.91 0.87 -71.2 0 0 33.83 115.85 Q 45.62 124.32 57.59 132.53 Q 57.84 132.71 57.97 132.90 Q 58.50 133.66 57.00 132.79 Q 45.86 126.30 34.68 119.89 Q 34.62 119.85 33.28 119.20 Q 31.34 118.26 30.71 116.20 Q 30.31 114.89 30.06 114.38 Q 29.62 113.51 29.23 112.65 Q 28.51 111.08 28.00 112.74 Q 27.65 113.89 27.55 115.07 Q 27.42 116.49 27.15 117.38 Q 24.05 127.72 24.29 138.30 Q 24.51 147.93 28.24 157.78 Q 32.27 168.46 38.94 177.31 Q 42.28 181.75 47.99 185.47 Q 53.79 189.25 60.76 188.94 Q 68.58 188.58 76.06 186.32 Q 87.82 182.76 95.46 173.21 Q 97.39 170.80 100.27 170.75 Q 102.92 170.71 101.94 173.17 Q 99.91 178.33 96.27 182.51 Q 84.18 196.38 65.73 198.36 Q 42.57 200.84 29.31 182.94 Q 22.74 174.06 18.09 161.72 Q 12.91 147.94 15.69 133.63 Q 16.13 131.37 17.82 128.34 Q 20.57 123.41 22.06 117.31 Q 22.75 114.50 22.25 112.00 Q 21.83 109.94 19.54 107.81 Q 16.25 104.75 13.03 101.61 Q 6.76 95.49 6.58 95.30 Q 0.86 88.80 0.00 79.69 Z"/>
<path fill="rgb(35,31,30)" fill-opacity="1.000" d="M 139.06 65.69 Q 144.18 69.74 146.13 76.46 Q 148.97 86.27 148.11 96.45 Q 148.07 96.94 147.90 96.46 Q 143.47 83.95 138.44 76.81 Q 134.80 71.65 128.68 69.89 Q 124.67 68.73 117.25 69.29 Q 84.08 71.81 58.14 92.93 Q 57.70 93.29 57.70 92.74 L 57.58 83.51 A 2.89 2.48 -21.9 0 1 58.68 81.39 Q 68.81 73.47 80.55 69.04 Q 96.23 63.12 112.80 61.31 Q 122.93 60.21 126.20 60.49 Q 133.28 61.11 139.06 65.69 Z"/>
<path fill="rgb(255,255,255)" fill-opacity="1.000" d="M 337.31 155.94 Q 341.58 157.82 346.27 158.25 Q 347.95 158.41 348.78 159.88 Q 349.96 161.98 347.25 161.75 Q 343.88 161.46 334.75 163.23 Q 312.42 167.54 290.84 175.82 A 1.24 1.23 59.2 0 1 289.46 175.46 Q 284.42 169.46 280.10 164.16 Q 278.76 162.50 277.07 163.81 Q 275.53 165.00 276.74 166.49 L 287.57 179.83 A 2.37 2.33 -25.6 0 0 289.91 180.63 Q 316.06 174.79 341.79 169.95 Q 347.48 168.88 353.85 168.46 Q 355.73 168.34 354.43 169.71 Q 346.80 177.78 336.40 182.43 Q 334.59 183.25 332.44 183.01 Q 321.60 181.82 310.73 182.02 Q 297.24 182.27 290.81 183.50 Q 280.52 185.48 271.73 191.29 Q 268.82 193.21 268.25 189.77 Q 265.37 172.19 267.14 154.65 Q 268.11 144.93 270.86 135.03 Q 276.15 115.95 286.26 98.75 Q 292.19 88.67 300.86 80.85 Q 305.05 77.08 310.30 75.07 A 0.76 0.75 -28.0 0 1 311.20 75.34 Q 315.45 81.25 321.90 83.42 Q 331.76 86.73 339.50 85.75 Q 344.79 85.08 347.57 88.11 Q 347.93 88.49 350.41 93.68 Q 353.63 100.42 360.56 102.69 Q 374.90 107.37 386.47 117.02 Q 393.82 123.16 397.32 132.04 A 0.69 0.68 -30.6 0 1 397.11 132.82 Q 386.23 141.81 377.04 152.53 Q 373.32 156.87 370.58 162.15 A 0.68 0.68 -61.3 0 1 369.64 162.43 Q 361.21 157.64 352.04 155.34 Q 344.71 153.50 337.31 155.06 Q 335.97 155.35 337.31 155.94 Z M 304.98 160.20 Q 303.36 156.59 298.68 156.28 Q 297.99 156.23 297.35 156.49 Q 294.78 157.51 297.59 158.27 Q 297.95 158.36 299.04 158.49 Q 302.89 158.92 303.72 162.97 A 1.02 1.02 76.0 0 0 305.01 163.75 L 332.17 155.44 A 2.80 2.72 -80.0 0 0 333.57 154.43 Q 337.44 149.10 340.94 145.25 Q 341.01 145.17 342.31 143.53 Q 343.79 141.68 346.00 141.25 Q 352.61 139.97 365.30 138.04 Q 365.34 138.04 369.23 137.64 Q 371.51 137.41 373.71 136.68 A 0.89 0.89 56.8 0 0 374.02 135.18 Q 373.29 134.53 371.74 134.36 Q 365.58 133.68 359.68 135.38 Q 357.30 136.07 356.14 136.24 Q 354.32 136.52 352.49 136.67 Q 350.82 136.80 352.06 135.81 Q 354.40 133.96 366.96 128.37 Q 368.15 127.84 368.70 127.20 Q 369.96 125.75 368.61 124.80 Q 367.81 124.24 366.27 124.26 Q 359.81 124.36 355.00 125.50 Q 352.75 126.03 352.48 124.68 A 0.76 0.61 -21.7 0 1 352.89 123.95 Q 357.01 121.76 360.34 118.54 A 1.36 0.95 -29.4 0 0 360.74 117.70 Q 360.75 116.34 358.74 116.70 Q 350.26 118.24 345.75 125.14 Q 344.13 127.62 343.04 128.19 Q 341.11 129.21 338.67 128.63 Q 334.94 127.75 333.06 126.44 Q 329.80 124.17 325.98 122.99 Q 323.84 122.34 324.83 124.35 Q 326.05 126.83 328.51 128.72 Q 332.32 131.65 335.80 134.95 Q 339.05 138.04 336.06 140.20 Q 334.21 141.55 334.17 141.58 Q 329.27 145.96 326.36 152.10 A 1.90 1.89 -88.6 0 1 325.39 153.03 L 306.77 160.90 A 1.38 1.37 -23.5 0 1 304.98 160.20 Z M 282.83 156.61 Q 284.06 155.01 282.52 154.25 A 0.77 0.70 -52.5 0 0 281.69 154.40 Q 278.62 157.32 281.84 159.71 A 1.87 1.41 -17.7 0 0 282.75 160.03 Q 285.41 160.23 287.91 161.08 Q 289.72 161.70 289.63 162.80 Q 289.55 163.97 287.72 165.38 A 2.75 2.71 -16.2 0 0 286.65 167.30 Q 286.48 169.08 288.49 169.22 Q 289.66 169.31 290.68 168.52 Q 293.09 166.67 293.21 163.81 Q 293.33 161.16 291.33 159.38 Q 288.98 157.29 285.50 157.75 Q 283.80 157.97 282.87 157.33 A 0.55 0.45 -53.6 0 1 282.83 156.61 Z"/>
<path fill="rgb(35,31,30)" fill-opacity="1.000" d="M 155.62 109.77 Q 155.37 110.29 155.02 110.76 Q 152.99 113.49 151.46 111.50 Q 150.79 110.62 150.51 108.84 Q 149.76 104.01 150.25 101.75 Q 150.71 99.63 151.88 100.92 A 1.58 0.98 -76.7 0 1 152.18 101.82 L 152.50 108.51 Q 152.59 110.49 153.58 108.74 Q 156.95 102.75 163.16 98.35 A 1.33 1.31 -59.9 0 1 164.07 98.10 Q 167.37 98.42 169.00 100.60 Q 170.11 102.08 168.26 102.25 Q 166.46 102.42 165.39 103.57 Q 164.30 104.73 164.71 106.30 Q 165.33 108.67 168.50 109.00 Q 173.07 109.47 175.43 106.55 Q 177.30 104.23 177.95 103.78 Q 183.25 100.10 189.94 100.52 A 1.08 0.95 -11.8 0 1 190.74 100.97 Q 191.65 102.42 189.25 102.43 Q 184.02 102.45 179.77 105.10 Q 178.76 105.74 176.94 108.07 Q 174.95 110.61 172.00 111.00 Q 166.72 111.69 162.00 109.26 Q 159.12 107.78 156.26 109.09 A 1.50 1.14 -83.8 0 0 155.62 109.77 Z"/>
<path fill="rgb(35,31,30)" fill-opacity="1.000" d="M 304.98 160.20 A 1.38 1.37 -23.5 0 0 306.77 160.90 L 325.39 153.03 A 1.90 1.89 -88.6 0 0 326.36 152.10 Q 329.27 145.96 334.17 141.58 Q 334.21 141.55 336.06 140.20 Q 339.05 138.04 335.80 134.95 Q 332.32 131.65 328.51 128.72 Q 326.05 126.83 324.83 124.35 Q 323.84 122.34 325.98 122.99 Q 329.80 124.17 333.06 126.44 Q 334.94 127.75 338.67 128.63 Q 341.11 129.21 343.04 128.19 Q 344.13 127.62 345.75 125.14 Q 350.26 118.24 358.74 116.70 Q 360.75 116.34 360.74 117.70 A 1.36 0.95 -29.4 0 1 360.34 118.54 Q 357.01 121.76 352.89 123.95 A 0.76 0.61 -21.7 0 0 352.48 124.68 Q 352.75 126.03 355.00 125.50 Q 359.81 124.36 366.27 124.26 Q 367.81 124.24 368.61 124.80 Q 369.96 125.75 368.70 127.20 Q 368.15 127.84 366.96 128.37 Q 354.40 133.96 352.06 135.81 Q 350.82 136.80 352.49 136.67 Q 354.32 136.52 356.14 136.24 Q 357.30 136.07 359.68 135.38 Q 365.58 133.68 371.74 134.36 Q 373.29 134.53 374.02 135.18 A 0.89 0.89 56.8 0 1 373.71 136.68 Q 371.51 137.41 369.23 137.64 Q 365.34 138.04 365.30 138.04 Q 352.61 139.97 346.00 141.25 Q 343.79 141.68 342.31 143.53 Q 341.01 145.17 340.94 145.25 Q 337.44 149.10 333.57 154.43 A 2.80 2.72 -80.0 0 1 332.17 155.44 L 305.01 163.75 A 1.02 1.02 76.0 0 1 303.72 162.97 Q 302.89 158.92 299.04 158.49 Q 297.95 158.36 297.59 158.27 Q 294.78 157.51 297.35 156.49 Q 297.99 156.23 298.68 156.28 Q 303.36 156.59 304.98 160.20 Z"/>
<path fill="rgb(35,31,30)" fill-opacity="1.000" d="M 137.77 149.15 Q 144.56 152.43 148.69 157.56 Q 153.59 163.65 156.13 171.28 Q 157.68 175.93 158.99 186.40 Q 161.07 203.04 162.47 219.75 Q 162.71 222.74 161.43 225.45 Q 159.99 228.50 158.06 225.73 Q 154.91 221.23 154.22 215.97 Q 152.31 201.47 150.75 194.75 Q 149.29 188.46 146.68 182.55 A 1.36 1.36 -33.8 0 0 144.50 182.12 Q 141.98 184.54 142.43 188.26 Q 143.79 199.38 143.75 216.25 Q 143.71 235.16 143.00 240.50 Q 142.69 242.86 140.77 243.05 Q 139.50 243.18 138.08 242.13 Q 132.95 238.33 133.25 230.75 Q 134.30 204.26 133.68 177.75 Q 133.54 171.83 131.56 166.64 Q 130.84 164.74 129.70 166.42 Q 127.62 169.50 126.97 173.15 Q 126.23 177.34 124.94 179.19 Q 123.22 181.64 119.92 182.04 A 0.49 0.48 -14.8 0 0 119.53 182.70 Q 121.58 187.53 120.38 192.26 A 1.17 0.98 -59.1 0 0 120.52 193.16 L 127.19 202.57 A 3.14 2.73 31.2 0 1 127.77 204.38 Q 127.51 212.66 128.42 220.26 Q 131.40 245.32 132.50 275.50 Q 133.27 296.56 131.24 314.95 A 1.72 1.37 74.3 0 1 130.87 315.83 Q 129.80 317.00 129.38 315.59 Q 129.24 315.12 129.30 314.40 Q 130.65 299.06 130.50 291.75 Q 129.74 254.68 124.85 217.93 Q 124.04 211.87 124.26 205.46 A 2.81 2.23 32.8 0 0 123.71 203.84 L 116.53 194.17 A 1.15 0.97 -59.2 0 1 116.38 193.27 Q 117.26 189.67 116.16 186.32 Q 116.03 185.92 114.21 183.12 Q 112.93 181.15 113.14 178.55 A 1.12 0.95 -69.2 0 0 112.84 177.70 Q 111.02 175.93 108.26 176.54 Q 105.62 177.13 104.94 175.05 A 1.39 1.16 -46.0 0 1 105.01 174.11 Q 106.77 170.15 110.56 164.81 Q 113.44 160.76 117.28 159.18 A 0.55 0.54 -19.6 0 0 117.60 158.52 Q 115.95 153.01 117.25 149.50 Q 118.40 146.39 122.57 145.90 A 0.76 0.76 87.1 0 0 123.25 145.14 Q 123.25 142.50 123.46 139.52 Q 123.70 136.18 121.50 133.25 Q 120.56 132.00 119.40 129.79 Q 118.32 127.74 118.07 126.03 Q 117.14 119.56 123.50 117.50 Q 133.95 114.11 137.50 124.50 Q 139.02 128.96 138.75 136.25 Q 138.67 138.30 137.38 148.45 A 0.68 0.66 16.5 0 0 137.77 149.15 Z"/>
<path fill="rgb(35,31,30)" fill-opacity="1.000" d="M 63.29 168.55 Q 63.65 167.65 64.31 167.54 Q 70.65 166.46 76.46 163.73 Q 80.51 161.82 82.93 158.29 Q 83.58 157.35 84.88 153.43 Q 86.43 148.78 90.62 145.77 A 0.80 0.79 52.1 0 0 90.76 144.61 Q 88.45 141.89 85.92 139.13 Q 84.37 137.45 84.24 136.42 Q 84.03 134.85 85.31 133.06 Q 87.33 130.25 89.52 127.57 Q 90.87 125.92 91.97 125.49 Q 94.17 124.63 95.05 127.46 A 1.19 0.94 56.7 0 1 94.97 128.38 L 90.73 134.86 A 1.11 0.97 -51.8 0 0 90.80 136.18 Q 92.87 138.19 94.58 140.47 Q 96.81 143.46 96.47 145.61 Q 96.04 148.31 92.82 150.76 Q 90.76 152.32 90.10 154.82 Q 88.29 161.77 80.34 165.74 Q 72.44 169.69 63.70 169.20 A 0.48 0.47 -77.4 0 1 63.29 168.55 Z"/>
<path fill="rgb(35,31,30)" fill-opacity="1.000" d="M 282.87 157.33 Q 283.80 157.97 285.50 157.75 Q 288.98 157.29 291.33 159.38 Q 293.33 161.16 293.21 163.81 Q 293.09 166.67 290.68 168.52 Q 289.66 169.31 288.49 169.22 Q 286.48 169.08 286.65 167.30 A 2.75 2.71 -16.2 0 1 287.72 165.38 Q 289.55 163.97 289.63 162.80 Q 289.72 161.70 287.91 161.08 Q 285.41 160.23 282.75 160.03 A 1.87 1.41 -17.7 0 1 281.84 159.71 Q 278.62 157.32 281.69 154.40 A 0.77 0.70 -52.5 0 1 282.52 154.25 Q 284.06 155.01 282.83 156.61 A 0.55 0.45 -53.6 0 0 282.87 157.33 Z"/>
<ellipse fill="rgb(255,255,255)" fill-opacity="1.000" cx="0" cy="0" rx="2.61" ry="1.88" transform="translate(262.37,202.05) rotate(-0.2)"/>
<path fill="rgb(35,31,30)" fill-opacity="1.000" d="M 309.82 243.20 Q 324.27 243.69 338.69 247.36 A 0.43 0.43 9.6 0 0 339.23 246.98 Q 340.82 228.00 334.93 210.19 Q 334.02 207.45 336.54 207.28 A 1.98 1.97 76.9 0 1 338.49 208.50 Q 346.48 227.75 346.00 247.50 Q 345.86 253.35 344.85 256.47 A 0.61 0.59 12.5 0 1 344.19 256.87 Q 326.05 254.40 307.62 253.75 A 1.54 1.53 -4.6 0 1 306.18 252.53 Q 303.64 240.37 305.37 227.43 A 1.26 1.19 76.4 0 1 305.83 226.62 Q 308.45 224.64 309.08 227.43 Q 309.28 228.32 309.10 230.08 Q 308.46 236.39 309.25 242.70 A 0.59 0.57 -2.8 0 0 309.82 243.20 Z"/>
<path fill="rgb(35,31,30)" fill-opacity="1.000" d="M 306.69 216.19 Q 309.05 213.59 310.21 212.57 Q 310.74 212.11 311.30 212.07 Q 312.28 212.00 312.13 212.99 Q 312.06 213.44 311.62 213.87 Q 295.80 229.59 288.23 250.60 A 1.27 1.02 -87.0 0 1 287.61 251.29 Q 286.28 251.86 286.41 250.37 Q 286.44 249.90 286.71 249.15 Q 292.99 231.27 306.69 216.19 Z"/>
<path fill="rgb(35,31,30)" fill-opacity="1.000" d="M 354.54 319.15 Q 353.77 319.82 354.78 319.96 Q 373.07 322.66 381.34 337.23 Q 384.68 343.11 384.10 347.79 Q 383.31 354.19 376.19 357.18 Q 364.58 362.05 355.74 370.99 Q 352.58 374.18 349.06 371.94 Q 346.80 370.50 346.76 367.94 Q 346.74 366.32 348.01 363.88 Q 354.96 350.48 369.44 345.19 Q 371.67 344.37 371.00 342.25 Q 367.09 329.87 353.74 331.13 Q 345.71 331.90 341.50 331.00 Q 338.22 330.30 336.57 327.42 Q 335.09 324.85 335.72 321.87 Q 336.65 317.49 341.29 315.52 Q 347.51 312.89 353.50 309.65 A 1.01 1.01 -34.8 0 0 353.78 308.10 Q 352.92 307.10 350.99 306.83 Q 346.89 306.26 342.75 306.26 Q 339.66 306.27 336.81 305.34 Q 333.85 304.37 331.91 302.14 Q 326.61 296.08 330.94 287.44 Q 333.02 283.27 332.91 277.25 Q 332.76 268.74 332.08 260.24 Q 331.85 257.40 334.12 258.46 A 1.68 1.33 82.9 0 1 334.81 259.14 Q 340.62 269.82 341.38 282.01 Q 341.72 287.54 339.64 292.81 Q 338.78 294.98 341.05 295.51 Q 347.94 297.13 354.41 300.12 Q 356.17 300.94 357.66 302.15 Q 359.21 303.40 360.10 305.03 Q 362.97 310.28 358.47 315.23 Q 356.39 317.52 354.54 319.15 Z"/>
<path fill="rgb(35,31,30)" fill-opacity="1.000" d="M 79.44 384.52 Q 79.21 384.41 78.75 384.50 Q 72.72 385.63 63.82 386.63 A 1.42 1.05 -23.8 0 1 62.88 386.42 Q 62.06 385.79 62.80 385.09 Q 63.15 384.77 63.81 384.67 Q 94.54 380.06 125.51 377.54 A 1.24 1.23 -71.2 0 0 126.33 377.13 Q 131.19 371.79 137.25 366.97 A 0.66 0.65 -32.7 0 0 137.43 366.18 Q 135.35 361.84 138.00 358.80 Q 139.60 356.98 139.80 356.18 Q 140.42 353.82 137.62 353.70 Q 134.97 353.58 134.90 353.57 Q 127.41 352.29 131.79 345.79 Q 133.52 343.21 130.45 342.78 Q 125.69 342.10 125.67 338.73 Q 125.67 337.52 126.92 333.67 Q 127.95 330.50 129.50 327.53 Q 130.90 324.86 133.33 326.24 A 1.06 1.04 -81.1 0 1 133.86 326.98 Q 134.33 329.51 132.44 331.44 Q 129.89 334.04 134.25 335.00 Q 141.29 336.56 148.47 336.20 Q 151.19 336.06 152.37 336.44 Q 155.91 337.60 152.75 341.50 Q 147.88 346.26 154.75 347.00 Q 157.71 347.32 158.98 349.08 A 1.41 1.24 -62.8 0 1 159.21 349.99 Q 158.35 358.32 148.94 359.34 A 1.18 1.18 82.2 0 0 147.90 360.71 Q 148.71 365.55 144.31 368.56 A 0.90 0.86 59.2 0 0 144.05 369.69 L 145.87 373.22 A 0.80 0.69 73.0 0 0 146.57 373.66 Q 162.90 372.90 178.00 374.50 Q 185.58 375.30 193.49 377.30 Q 202.33 379.53 204.08 379.93 Q 209.40 381.13 214.71 382.44 A 1.51 1.15 -5.4 0 1 215.51 382.94 Q 216.33 384.02 214.86 384.21 Q 214.37 384.27 213.65 384.13 Q 184.68 378.61 156.75 379.50 Q 111.65 380.94 64.42 390.55 A 1.92 1.91 -31.4 0 1 62.84 390.17 Q 61.59 389.20 63.78 388.60 Q 71.42 386.50 79.20 385.03 Q 80.15 384.85 79.44 384.52 Z"/>
<path fill="rgb(35,31,30)" fill-opacity="1.000" d="M 291.90 419.78 L 290.65 421.94 A 1.54 0.54 -51.4 0 0 290.34 422.82 L 291.22 436.75 Q 291.24 437.18 291.51 437.68 Q 292.23 439.04 291.78 440.67 Q 291.29 442.47 289.99 441.13 Q 288.24 439.32 288.98 437.39 Q 289.19 436.86 289.17 436.44 Q 288.88 430.11 288.13 423.82 Q 286.96 413.93 287.82 404.01 Q 288.04 401.45 290.02 400.47 Q 292.68 399.15 292.77 399.09 Q 294.31 397.94 295.68 396.69 A 2.13 2.12 31.2 0 1 297.70 396.20 Q 300.89 397.08 303.13 398.55 Q 304.42 399.39 304.66 400.52 Q 305.03 402.31 302.36 402.08 Q 300.28 401.91 300.26 401.91 Q 294.72 401.99 293.06 407.69 Q 292.10 410.99 291.88 415.68 A 1.74 1.45 4.5 0 0 293.45 417.22 L 299.78 417.88 A 0.67 0.45 7.3 0 1 300.42 418.44 Q 300.38 418.63 300.13 418.81 Q 299.96 418.94 299.71 418.94 Q 296.12 418.96 292.55 419.27 A 1.02 0.63 -69.7 0 0 291.90 419.78 Z"/>
<path fill="rgb(35,31,30)" fill-opacity="1.000" d="M 201.31 432.70 Q 205.17 432.78 208.92 432.04 Q 209.04 432.01 211.60 431.74 Q 213.60 431.52 215.14 430.10 A 1.28 0.92 -57.1 0 1 216.00 429.76 Q 217.66 429.90 218.19 431.81 Q 218.92 434.46 217.26 435.48 Q 216.64 435.86 214.13 436.06 Q 211.06 436.30 208.28 437.54 Q 205.64 438.72 204.09 438.65 Q 201.83 438.56 199.17 437.76 A 0.68 0.67 -78.6 0 1 198.70 437.04 Q 199.11 432.91 199.54 429.02 Q 200.00 424.93 200.05 420.96 Q 200.20 410.54 200.47 400.11 Q 200.51 398.49 201.17 397.56 Q 202.57 395.61 204.30 397.22 Q 206.11 398.90 205.59 401.32 Q 202.26 416.82 200.86 432.19 A 0.46 0.46 -86.6 0 0 201.31 432.70 Z"/>
<path fill="rgb(35,31,30)" fill-opacity="1.000" d="M 261.53 414.86 Q 264.54 416.05 266.02 419.02 Q 270.53 428.09 262.40 436.52 A 3.21 3.18 -65.4 0 1 259.83 437.49 Q 257.64 437.30 255.37 436.08 Q 253.35 435.01 251.73 435.75 L 246.47 438.16 A 2.31 2.06 -30.8 0 1 243.81 437.65 Q 241.60 434.87 243.70 431.90 A 1.90 0.99 79.2 0 0 243.97 431.00 L 244.16 427.74 A 1.50 0.52 -42.8 0 1 244.61 426.90 Q 245.46 425.87 245.50 423.75 Q 245.65 415.26 244.25 410.00 Q 244.11 409.47 244.34 407.15 Q 244.43 406.26 244.37 404.34 Q 244.20 399.39 248.81 398.99 Q 252.45 398.67 252.66 398.64 Q 258.04 397.78 263.45 398.72 A 1.30 1.27 -12.8 0 1 264.25 399.21 Q 267.23 403.10 265.94 407.69 Q 264.88 411.48 261.45 414.37 A 0.29 0.29 35.9 0 0 261.53 414.86 Z M 263.26 402.46 Q 262.31 401.10 260.65 401.22 Q 255.27 401.61 251.09 404.50 Q 249.23 405.79 249.44 408.05 L 250.08 415.11 A 0.74 0.73 80.5 0 0 250.98 415.76 Q 253.20 415.21 255.44 414.80 Q 258.14 414.32 259.65 413.27 Q 262.35 411.40 263.56 408.81 Q 265.22 405.28 263.26 402.46 Z M 256.60 434.24 Q 259.26 435.40 262.45 434.79 A 0.74 0.61 -89.1 0 0 262.96 434.19 Q 263.08 433.45 263.69 432.69 Q 267.94 427.38 264.60 421.20 Q 262.94 418.11 260.69 418.06 Q 255.97 417.95 251.36 420.19 A 1.49 1.48 -6.5 0 0 250.56 421.19 Q 249.01 427.77 253.74 432.33 Q 255.00 433.55 256.60 434.24 Z"/>
<path fill="rgb(35,31,30)" fill-opacity="1.000" d="M 52.16 424.66 A 1.08 1.07 68.4 0 0 51.58 426.02 Q 53.92 432.36 55.84 438.51 Q 56.60 440.91 55.12 438.65 Q 53.72 436.50 52.90 434.07 Q 51.40 429.66 48.32 425.93 Q 47.07 424.41 45.20 425.02 Q 42.16 426.00 39.78 428.28 Q 38.42 429.57 37.97 431.32 Q 37.89 431.63 37.88 434.71 Q 37.86 437.79 35.99 440.29 A 1.41 1.36 -78.0 0 1 35.21 440.82 Q 31.20 441.88 31.93 437.91 Q 32.13 436.80 32.72 435.85 Q 34.51 432.96 34.87 430.42 Q 34.98 429.64 34.28 426.83 Q 33.66 424.37 35.06 422.31 Q 36.59 420.06 36.92 417.88 Q 37.30 415.31 37.34 415.15 Q 38.01 412.06 38.00 408.64 Q 38.00 407.98 38.27 407.39 Q 40.14 403.40 39.42 400.97 A 1.39 1.02 56.2 0 1 39.46 400.04 Q 40.11 398.73 40.79 398.67 Q 42.73 398.49 43.53 400.27 Q 48.45 411.30 50.14 420.40 A 1.78 1.78 -3.0 0 0 51.75 421.85 Q 54.77 422.08 54.80 422.96 Q 54.83 423.52 53.67 424.02 Q 52.83 424.38 52.16 424.66 Z M 40.18 419.56 Q 42.28 420.58 44.36 421.59 Q 45.85 422.32 46.17 421.22 Q 46.31 420.70 46.00 419.81 Q 44.81 416.49 44.30 412.99 Q 43.93 410.40 42.28 407.72 Q 41.56 406.56 41.22 407.88 Q 39.90 412.91 39.73 418.82 A 0.81 0.81 14.0 0 0 40.18 419.56 Z"/>
<path fill="rgb(35,31,30)" fill-opacity="1.000" d="M 82.50 440.29 Q 82.42 440.69 82.75 440.79 Q 82.63 441.67 81.74 441.02 Q 79.37 439.29 77.68 436.97 Q 74.82 433.05 74.29 432.45 Q 70.18 427.83 69.06 425.94 Q 67.55 423.38 65.13 421.40 A 1.26 1.25 25.3 0 0 63.10 422.12 Q 61.65 429.34 61.57 435.93 A 1.62 1.06 36.7 0 0 61.89 436.81 Q 62.45 437.59 62.15 438.48 A 0.57 0.57 16.7 0 1 61.46 438.85 Q 59.87 438.45 59.77 436.50 Q 59.61 433.58 59.96 430.69 Q 61.68 416.74 63.13 401.35 A 2.31 2.29 76.4 0 1 64.16 399.65 Q 65.45 398.79 67.03 398.69 Q 68.00 398.63 69.97 398.64 Q 73.45 398.65 75.19 401.56 Q 77.21 404.96 76.99 409.32 Q 76.82 412.70 76.62 413.68 Q 76.12 416.15 73.94 417.44 Q 71.09 419.12 72.39 422.05 Q 76.45 431.20 79.06 435.94 Q 79.96 437.57 82.50 440.29 Z M 70.42 402.50 Q 67.86 401.24 66.63 403.23 Q 66.18 403.96 65.80 406.40 Q 65.38 409.05 64.25 413.50 Q 63.37 416.96 65.77 416.36 Q 67.60 415.89 67.79 415.85 Q 70.73 415.25 71.35 412.63 Q 71.63 411.45 71.79 408.37 Q 71.89 406.50 71.56 404.07 A 2.06 2.06 -81.0 0 0 70.42 402.50 Z"/>
<path fill="rgb(35,31,30)" fill-opacity="1.000" d="M 82.75 440.79 Q 82.42 440.69 82.50 440.29 Q 82.48 438.83 82.71 437.40 Q 82.88 436.32 83.87 434.87 Q 86.55 430.93 84.89 426.37 A 3.37 3.34 49.7 0 1 85.11 423.58 Q 88.33 417.83 88.49 411.36 Q 88.49 411.31 88.44 410.14 Q 88.35 408.06 89.69 405.69 Q 90.80 403.72 90.13 400.98 A 1.45 1.09 57.9 0 1 90.21 400.05 Q 91.10 398.39 92.56 398.89 Q 93.45 399.20 94.09 400.44 Q 98.73 409.46 100.38 419.48 Q 100.63 421.02 101.41 421.57 Q 102.15 422.08 103.13 422.09 Q 104.59 422.09 104.86 422.18 Q 106.68 422.79 103.02 424.61 A 1.56 1.55 -25.4 0 0 102.29 426.64 Q 105.02 432.76 106.57 439.20 Q 106.69 439.70 106.40 439.28 Q 103.77 435.45 102.25 431.00 Q 101.82 429.73 100.25 427.51 Q 98.89 425.58 97.66 425.13 Q 95.83 424.46 93.80 425.79 Q 91.39 427.37 89.35 429.39 A 1.60 1.49 73.6 0 0 88.92 430.25 Q 88.37 433.77 87.90 437.29 Q 87.30 441.81 82.75 440.79 Z M 90.88 419.69 Q 93.18 420.61 95.07 421.61 Q 96.16 422.19 96.75 421.43 A 1.11 0.78 60.3 0 0 96.84 420.52 Q 95.22 415.59 94.09 410.54 Q 93.78 409.16 93.06 407.93 Q 92.00 406.12 91.72 408.13 L 90.26 418.73 A 0.98 0.87 15.3 0 0 90.88 419.69 Z"/>
<path fill="rgb(35,31,30)" fill-opacity="1.000" d="M 134.20 416.88 Q 135.77 415.71 137.70 415.88 Q 139.19 416.01 139.30 416.01 Q 143.24 416.10 145.38 417.03 Q 149.18 418.68 145.02 419.23 L 134.24 420.66 A 0.61 0.58 87.3 0 0 133.73 421.25 Q 133.49 428.85 139.46 432.20 Q 141.01 433.07 144.24 433.63 Q 146.74 434.06 149.20 434.68 A 0.99 0.83 1.4 0 1 149.87 435.27 Q 150.32 436.78 148.25 436.75 Q 142.56 436.68 140.81 436.43 Q 134.47 435.53 133.16 429.27 Q 132.47 426.01 131.75 422.75 Q 131.13 419.95 132.20 408.75 A 1.10 0.95 27.7 0 0 131.87 407.91 Q 130.19 406.25 130.91 404.04 A 0.49 0.47 -83.8 0 0 130.42 403.40 L 120.55 404.47 A 0.37 0.35 72.9 0 0 120.29 405.00 Q 121.93 408.30 121.00 413.25 Q 120.03 418.39 120.00 437.36 Q 120.00 438.14 119.83 438.63 Q 119.34 440.08 118.39 438.71 Q 118.07 438.25 118.04 437.58 Q 117.59 425.91 117.93 414.23 Q 117.97 412.66 117.73 409.79 Q 117.56 407.80 117.66 405.80 A 0.34 0.33 -7.9 0 0 117.22 405.47 Q 112.05 407.13 108.00 406.00 Q 103.91 404.85 107.19 401.94 Q 108.91 400.40 112.20 400.42 Q 115.24 400.43 115.30 400.43 Q 124.29 400.04 133.24 400.81 Q 133.52 400.84 137.18 401.59 Q 139.06 401.98 141.25 401.75 Q 146.90 401.15 152.23 403.59 Q 153.41 404.14 153.77 404.96 Q 154.51 406.64 150.66 406.04 Q 148.95 405.78 147.36 406.47 Q 145.58 407.25 143.66 407.67 Q 142.73 407.87 139.81 407.96 Q 137.49 408.04 135.29 408.66 A 1.08 0.93 -6.7 0 0 134.52 409.50 L 133.81 416.69 Q 133.76 417.20 134.20 416.88 Z"/>
<path fill="rgb(35,31,30)" fill-opacity="1.000" d="M 19.06 411.81 Q 18.04 413.27 16.52 414.58 A 1.07 1.07 -44.0 0 0 16.49 416.17 Q 20.99 420.33 24.23 424.73 Q 25.85 426.93 27.42 428.65 Q 29.14 430.54 30.71 432.53 Q 30.99 432.88 30.94 433.17 Q 30.90 433.43 30.70 433.56 A 0.75 0.50 42.5 0 1 29.98 433.45 Q 26.11 430.64 22.91 427.11 Q 19.94 423.83 18.96 423.00 Q 16.67 421.07 14.24 419.76 A 0.78 0.78 -71.5 0 0 13.10 420.33 Q 11.97 427.46 12.05 434.47 Q 12.05 434.59 12.19 435.89 Q 12.30 436.95 11.89 437.89 Q 11.16 439.54 10.32 437.95 Q 9.09 435.63 9.19 433.00 Q 9.41 427.85 8.76 422.75 Q 7.81 415.28 7.45 406.48 Q 7.37 404.62 9.02 403.76 Q 11.56 402.45 13.09 404.22 Q 14.10 405.39 14.14 407.53 Q 14.19 409.62 13.64 411.54 Q 13.03 413.65 14.67 412.20 Q 21.45 406.21 28.83 401.04 A 1.20 1.01 -52.6 0 1 29.73 400.84 Q 31.95 401.37 29.70 403.00 Q 20.68 409.52 19.06 411.81 Z"/>
<path fill="rgb(35,31,30)" fill-opacity="1.000" d="M 369.80 416.81 L 370.85 416.30 Q 371.50 415.98 371.74 415.97 Q 377.18 415.66 382.28 417.57 A 0.65 0.59 15.9 0 1 382.70 418.25 Q 382.47 419.52 381.23 419.41 Q 379.85 419.28 379.75 419.29 Q 374.93 419.58 370.25 420.75 A 1.32 1.23 -8.4 0 0 369.25 422.00 Q 369.46 429.24 375.18 432.33 Q 376.65 433.13 379.49 433.58 Q 381.74 433.94 383.97 434.41 Q 384.78 434.58 385.21 435.08 Q 386.40 436.47 383.99 436.66 Q 380.70 436.92 377.46 436.54 Q 373.52 436.07 371.49 434.30 Q 369.31 432.41 368.71 429.37 Q 368.02 425.83 367.98 425.70 Q 366.78 420.96 367.17 415.99 Q 367.45 412.39 367.88 408.81 A 1.07 1.00 26.7 0 0 367.57 407.97 Q 365.62 405.98 366.56 403.56 Q 368.08 399.69 372.05 401.53 Q 372.52 401.75 372.99 401.72 Q 380.13 401.30 387.72 403.18 A 2.31 2.31 4.7 0 1 389.47 405.24 Q 389.62 407.18 387.17 405.92 A 3.36 3.34 46.4 0 0 384.32 405.84 Q 380.21 407.62 377.24 407.76 Q 374.10 407.91 371.26 408.45 A 1.58 1.43 -3.3 0 0 370.00 409.73 L 369.33 416.43 Q 369.26 417.07 369.80 416.81 Z"/>
<path fill="rgb(255,255,255)" fill-opacity="1.000" d="M 263.26 402.46 Q 265.22 405.28 263.56 408.81 Q 262.35 411.40 259.65 413.27 Q 258.14 414.32 255.44 414.80 Q 253.20 415.21 250.98 415.76 A 0.74 0.73 80.5 0 1 250.08 415.11 L 249.44 408.05 Q 249.23 405.79 251.09 404.50 Q 255.27 401.61 260.65 401.22 Q 262.31 401.10 263.26 402.46 Z"/>
<path fill="rgb(35,31,30)" fill-opacity="1.000" d="M 338.69 422.81 Q 337.78 421.77 334.65 419.81 Q 334.61 419.78 332.81 418.77 Q 328.61 416.42 328.48 412.02 Q 328.38 409.10 330.10 406.83 Q 331.93 404.44 335.00 403.69 Q 337.73 403.02 337.82 403.00 Q 339.66 402.42 341.52 401.89 A 0.87 0.84 -30.0 0 1 342.36 402.10 Q 344.34 404.11 345.05 406.83 Q 345.32 407.84 345.09 408.70 Q 344.65 410.41 343.21 409.76 Q 342.58 409.47 341.69 408.34 Q 340.72 407.12 340.06 406.94 Q 334.91 405.50 332.56 409.81 Q 330.88 412.90 333.61 414.76 Q 334.91 415.65 334.96 415.70 Q 336.88 417.21 338.74 418.77 Q 343.57 422.81 344.25 428.50 Q 344.61 431.52 342.39 434.44 Q 338.53 439.51 332.75 437.18 Q 331.74 436.77 331.44 436.07 Q 330.98 435.03 332.28 434.43 A 1.03 0.82 45.6 0 1 333.17 434.54 Q 335.37 435.97 337.66 435.26 Q 339.62 434.66 340.55 432.43 Q 342.66 427.37 338.69 422.81 Z"/>
<path fill="rgb(35,31,30)" fill-opacity="1.000" d="M 358.23 407.14 Q 352.61 405.15 350.05 410.58 Q 349.06 412.70 350.86 414.18 Q 352.76 415.75 355.08 417.42 Q 358.40 419.81 360.28 423.23 Q 362.34 426.98 362.01 430.55 Q 361.57 435.44 356.50 437.50 Q 353.70 438.64 350.48 437.20 Q 349.50 436.77 349.26 436.02 Q 348.94 435.00 350.04 434.44 A 0.98 0.80 45.0 0 1 350.91 434.53 Q 353.06 435.89 355.29 435.29 Q 357.23 434.77 358.27 432.65 Q 360.62 427.84 356.81 423.19 Q 355.64 421.76 352.22 419.54 Q 348.51 417.13 347.62 416.01 Q 344.54 412.15 347.81 407.06 Q 348.85 405.45 350.56 404.49 Q 351.41 404.01 354.07 403.46 Q 356.36 402.98 358.53 401.99 A 1.55 1.54 -33.2 0 1 360.33 402.36 Q 362.78 405.11 362.99 407.85 Q 363.07 408.93 362.56 409.53 Q 361.80 410.40 360.44 409.56 Q 359.79 409.16 358.93 407.74 A 1.40 1.19 80.8 0 0 358.23 407.14 Z"/>
<path fill="rgb(35,31,30)" fill-opacity="1.000" d="M 390.68 417.32 Q 388.69 415.86 388.05 413.64 Q 387.47 411.65 388.26 409.40 Q 389.27 406.51 391.80 404.85 Q 392.88 404.14 396.04 403.39 Q 398.22 402.88 400.34 401.96 A 1.64 1.64 60.5 0 1 402.32 402.51 Q 403.70 404.42 404.36 406.17 Q 404.92 407.69 404.47 408.85 Q 403.63 411.00 400.63 408.01 Q 399.44 406.82 397.76 406.56 Q 393.06 405.83 391.63 411.03 Q 390.99 413.35 392.99 414.68 Q 395.57 416.39 397.80 418.17 Q 402.93 422.26 403.75 428.25 Q 404.18 431.40 401.91 434.45 Q 398.20 439.41 391.72 437.06 A 1.34 1.34 -63.7 0 1 391.05 435.08 Q 392.04 433.55 393.12 434.68 A 1.96 1.02 60.7 0 0 393.91 435.20 Q 397.56 436.14 399.39 433.75 Q 400.79 431.92 400.73 429.00 Q 400.64 424.51 396.63 421.64 Q 393.64 419.50 390.68 417.32 Z"/>
<path fill="rgb(255,255,255)" fill-opacity="1.000" d="M 70.42 402.50 A 2.06 2.06 -81.0 0 1 71.56 404.07 Q 71.89 406.50 71.79 408.37 Q 71.63 411.45 71.35 412.63 Q 70.73 415.25 67.79 415.85 Q 67.60 415.89 65.77 416.36 Q 63.37 416.96 64.25 413.50 Q 65.38 409.05 65.80 406.40 Q 66.18 403.96 66.63 403.23 Q 67.86 401.24 70.42 402.50 Z"/>
<path fill="rgb(35,31,30)" fill-opacity="1.000" d="M 172.72 428.76 Q 168.99 423.95 169.75 417.25 Q 169.91 415.88 171.44 409.69 Q 172.01 407.39 173.38 406.08 Q 174.13 405.36 176.93 404.63 Q 178.40 404.24 179.76 403.55 Q 181.69 402.58 182.52 402.43 Q 187.06 401.57 189.00 406.00 Q 190.09 408.49 188.10 409.04 Q 187.20 409.28 185.63 408.68 Q 177.99 405.72 174.56 413.56 Q 173.32 416.40 173.82 421.99 Q 174.16 425.66 176.24 428.37 Q 178.39 431.17 181.70 431.71 Q 186.33 432.47 189.19 427.94 Q 190.45 425.94 191.99 425.14 Q 192.46 424.90 192.75 424.54 Q 194.63 422.24 194.00 425.55 Q 193.25 429.45 190.97 432.71 Q 188.72 435.91 184.75 436.00 Q 181.15 436.08 177.82 433.67 Q 174.88 431.52 172.72 428.76 Z"/>
<path fill="rgb(35,31,30)" fill-opacity="1.000" d="M 223.76 433.60 Q 221.97 432.64 221.32 430.70 Q 220.14 427.20 220.31 423.50 Q 220.62 417.18 221.71 410.83 A 2.74 2.68 37.1 0 0 221.46 409.16 Q 220.10 406.47 222.11 404.58 A 1.37 1.31 -65.8 0 1 222.99 404.22 Q 225.35 404.19 225.86 406.21 Q 226.11 407.19 225.63 409.25 Q 223.88 416.67 223.92 424.29 Q 223.94 428.05 225.41 429.83 Q 227.38 432.21 230.52 430.79 Q 232.50 429.90 233.69 427.47 Q 236.52 421.64 236.64 415.00 Q 236.73 410.08 236.80 405.15 Q 236.81 404.10 237.27 403.63 Q 237.93 402.94 238.84 403.46 A 1.06 0.90 -80.2 0 1 239.30 404.24 Q 240.38 415.91 237.14 427.17 Q 236.53 429.29 235.29 431.05 Q 234.01 432.88 232.18 433.85 Q 228.17 435.98 223.76 433.60 Z"/>
<path fill="rgb(35,31,30)" fill-opacity="1.000" d="M 310.69 432.06 Q 307.12 429.13 306.23 425.80 Q 303.29 414.80 311.82 407.82 Q 313.84 406.17 315.96 404.88 Q 317.96 403.66 318.93 405.79 Q 320.47 409.20 317.00 410.50 Q 314.75 411.34 314.19 412.19 Q 310.05 418.39 311.97 425.11 Q 312.81 428.03 314.33 429.38 Q 316.76 431.51 320.04 429.00 A 1.60 1.54 80.8 0 0 320.58 428.22 Q 322.21 422.79 322.00 421.00 Q 321.70 418.44 319.81 415.94 Q 318.42 414.09 320.08 412.79 A 1.08 1.04 -56.4 0 1 320.98 412.59 Q 322.91 413.05 324.06 415.19 Q 328.45 423.29 324.30 429.78 Q 321.95 433.46 318.58 434.32 Q 314.65 435.32 310.69 432.06 Z"/>
<path fill="rgb(255,255,255)" fill-opacity="1.000" d="M 40.18 419.56 A 0.81 0.81 14.0 0 1 39.73 418.82 Q 39.90 412.91 41.22 407.88 Q 41.56 406.56 42.28 407.72 Q 43.93 410.40 44.30 412.99 Q 44.81 416.49 46.00 419.81 Q 46.31 420.70 46.17 421.22 Q 45.85 422.32 44.36 421.59 Q 42.28 420.58 40.18 419.56 Z"/>
<path fill="rgb(255,255,255)" fill-opacity="1.000" d="M 90.88 419.69 A 0.98 0.87 15.3 0 1 90.26 418.73 L 91.72 408.13 Q 92.00 406.12 93.06 407.93 Q 93.78 409.16 94.09 410.54 Q 95.22 415.59 96.84 420.52 A 1.11 0.78 60.3 0 1 96.75 421.43 Q 96.16 422.19 95.07 421.61 Q 93.18 420.61 90.88 419.69 Z"/>
<path fill="rgb(255,255,255)" fill-opacity="1.000" d="M 256.60 434.24 Q 255.00 433.55 253.74 432.33 Q 249.01 427.77 250.56 421.19 A 1.49 1.48 -6.5 0 1 251.36 420.19 Q 255.97 417.95 260.69 418.06 Q 262.94 418.11 264.60 421.20 Q 267.94 427.38 263.69 432.69 Q 263.08 433.45 262.96 434.19 A 0.74 0.61 -89.1 0 1 262.45 434.79 Q 259.26 435.40 256.60 434.24 Z"/>
</svg>